<svg width="80" height="84" viewBox="0 0 80 84" fill="none" xmlns="http://www.w3.org/2000/svg">
<path d="M18.6406 8.66992H45.4342" stroke="#EC0000" stroke-width="3" stroke-linecap="round" stroke-linejoin="round"/>
<path d="M13.6805 8.66992H3.0709C2.86354 8.66992 2.66469 8.75231 2.51807 8.89893C2.37145 9.04555 2.28906 9.2444 2.28906 9.45176V66.0647C2.28906 66.2721 2.37145 66.471 2.51807 66.6176C2.66469 66.7642 2.86354 66.8466 3.0709 66.8466H41.3263" stroke="#EC0000" stroke-width="3" stroke-linecap="round" stroke-linejoin="round"/>
<path d="M62.4541 46.3233V9.45176C62.4541 9.2444 62.3717 9.04555 62.2251 8.89893C62.0784 8.75231 61.8796 8.66992 61.6722 8.66992H50.8281" stroke="#EC0000" stroke-width="3" stroke-linecap="round" stroke-linejoin="round"/>
<path d="M2.28906 20.1709H62.4515" stroke="#EC0000" stroke-width="3" stroke-linecap="round" stroke-linejoin="round"/>
<path d="M19.6909 31.0381H15.2109V35.518H19.6909V31.0381Z" fill="#EA1D25" stroke="#EC0000" stroke-width="0.781839" stroke-miterlimit="10"/>
<path d="M29.7612 31.0381H25.2812V35.518H29.7612V31.0381Z" fill="#EA1D25" stroke="#EC0000" stroke-width="0.781839" stroke-miterlimit="10"/>
<path d="M39.8315 31.0381H35.3516V35.518H39.8315V31.0381Z" fill="#EA1D25" stroke="#EC0000" stroke-width="0.781839" stroke-miterlimit="10"/>
<path d="M49.9174 31.0381H45.4375V35.518H49.9174V31.0381Z" fill="#EA1D25" stroke="#EC0000" stroke-width="0.781839" stroke-miterlimit="10"/>
<path d="M19.6909 38.0742H15.2109V42.5542H19.6909V38.0742Z" fill="#EA1D25" stroke="#EC0000" stroke-width="0.781839" stroke-miterlimit="10"/>
<path d="M29.7612 38.0742H25.2812V42.5542H29.7612V38.0742Z" fill="#EA1D25" stroke="#EC0000" stroke-width="0.781839" stroke-miterlimit="10"/>
<path d="M39.8315 38.0742H35.3516V42.5542H39.8315V38.0742Z" fill="#EA1D25" stroke="#EC0000" stroke-width="0.781839" stroke-miterlimit="10"/>
<path d="M49.9174 38.0742H45.4375V42.5542H49.9174V38.0742Z" fill="#EA1D25" stroke="#EC0000" stroke-width="0.781839" stroke-miterlimit="10"/>
<path d="M19.6909 44.9004H15.2109V49.3803H19.6909V44.9004Z" fill="#EA1D25" stroke="#EC0000" stroke-width="0.781839" stroke-miterlimit="10"/>
<path d="M29.7612 44.9004H25.2812V49.3803H29.7612V44.9004Z" fill="#EA1D25" stroke="#EC0000" stroke-width="0.781839" stroke-miterlimit="10"/>
<path d="M39.8315 44.9004H35.3516V49.3803H39.8315V44.9004Z" fill="#EA1D25" stroke="#EC0000" stroke-width="0.781839" stroke-miterlimit="10"/>
<path d="M49.9174 44.9004H45.4375V49.3803H49.9174V44.9004Z" fill="#EA1D25" stroke="#EC0000" stroke-width="0.781839" stroke-miterlimit="10"/>
<path d="M19.6909 51.9375H15.2109V56.4174H19.6909V51.9375Z" fill="#EA1D25" stroke="#EC0000" stroke-width="0.781839" stroke-miterlimit="10"/>
<path d="M29.7612 51.9375H25.2812V56.4174H29.7612V51.9375Z" fill="#EA1D25" stroke="#EC0000" stroke-width="0.781839" stroke-miterlimit="10"/>
<path d="M39.8315 51.9375H35.3516V56.4174H39.8315V51.9375Z" fill="#EA1D25" stroke="#EC0000" stroke-width="0.781839" stroke-miterlimit="10"/>
<path d="M46.9152 56.4174H45.3906V51.9375H49.8784L50.0269 52.9617L49.6047 53.3135C48.6212 54.1427 47.765 55.1122 47.0638 56.1907L46.9152 56.4174Z" fill="#EA1D25" stroke="#EC0000" stroke-width="0.781839" stroke-miterlimit="10"/>
<path d="M18.6365 2.28906H13.6875V11.46H18.6365V2.28906Z" stroke="#EC0000" stroke-width="3" stroke-linecap="round" stroke-linejoin="round"/>
<path d="M50.824 2.28906H45.875V11.46H50.824V2.28906Z" stroke="#EC0000" stroke-width="3" stroke-linecap="round" stroke-linejoin="round"/>
<path d="M62.4657 83.6092C59.1504 83.6092 55.9095 82.6261 53.1529 80.7842C50.3963 78.9423 48.2478 76.3243 46.9791 73.2614C45.7104 70.1984 45.3784 66.828 46.0252 63.5764C46.672 60.3247 48.2685 57.3379 50.6128 54.9936C52.9571 52.6493 55.9439 51.0529 59.1955 50.4061C62.4471 49.7593 65.8175 50.0912 68.8805 51.36C71.9435 52.6287 74.5615 54.7772 76.4034 57.5338C78.2453 60.2904 79.2284 63.5313 79.2284 66.8466C79.2222 71.2904 77.4541 75.5505 74.3119 78.6927C71.1696 81.835 66.9096 83.603 62.4657 83.6092ZM62.4657 52.4295C59.6143 52.4295 56.8269 53.2751 54.456 54.8592C52.0852 56.4434 50.2373 58.6951 49.1461 61.3294C48.0549 63.9638 47.7694 66.8626 48.3256 69.6592C48.8819 72.4558 50.255 75.0248 52.2713 77.041C54.2876 79.0573 56.8565 80.4304 59.6531 80.9867C62.4497 81.543 65.3486 81.2575 67.9829 80.1663C70.6173 79.0751 72.8689 77.2272 74.4531 74.8563C76.0373 72.4855 76.8829 69.698 76.8829 66.8466C76.8766 63.0249 75.3557 59.3614 72.6533 56.659C69.9509 53.9566 66.2875 52.4357 62.4657 52.4295Z" fill="#EA1D25" stroke="#EC0000" stroke-width="0.781839" stroke-miterlimit="10"/>
<path d="M59.068 65.6869C60.1146 65.1408 60.6758 64.3521 60.6758 63.2449C60.6758 61.7129 59.4927 60.4995 57.2782 60.4995C55.0182 60.4995 53.7896 61.6826 53.7896 63.4269C53.7896 64.6858 54.4418 65.5807 55.3671 66.1115C54.2447 66.5666 53.5166 67.3856 53.5166 68.599C53.5166 70.3888 54.8362 71.5416 57.172 71.5416C59.5533 71.5416 60.9488 70.3282 60.9488 68.4474C60.9488 67.0519 60.1449 66.2177 59.068 65.6869ZM57.2327 62.0466C58.2944 62.0466 58.7495 62.623 58.7495 63.3662C58.7495 64.0336 58.3854 64.6099 57.3995 65.065L57.2782 65.0195C56.3681 64.7313 55.7159 64.2308 55.7159 63.3814C55.7159 62.623 56.1861 62.0466 57.2327 62.0466ZM57.263 69.949C56.1861 69.949 55.4884 69.4484 55.4884 68.4777C55.4884 67.7497 55.9283 67.1429 56.99 66.7183L57.2175 66.7789C58.5068 67.1429 58.9921 67.7648 58.9921 68.508C58.9921 69.3726 58.4158 69.949 57.263 69.949ZM70.4559 67.1278H69.0605V60.6208C68.2566 60.6208 67.7258 60.6512 66.9977 60.7725C65.3293 62.6078 63.676 65.0043 62.8114 67.1581C62.7508 67.7042 62.7356 68.0833 62.7356 68.7507H67.2252V71.2686H69.0605V68.7507H70.2284C70.3498 68.2654 70.4104 67.6131 70.4559 67.1278ZM64.5709 67.1278C65.2686 65.6717 66.1332 64.2763 67.2252 62.896V67.1278H64.5709Z" fill="#EA1D25"/>
<path d="M59.068 65.6869L58.9269 65.4165L58.394 65.6946L58.9332 65.9603L59.068 65.6869ZM55.3671 66.1115L55.4816 66.3941L56.0621 66.1588L55.5188 65.8471L55.3671 66.1115ZM57.3995 65.065L57.2925 65.3505L57.4117 65.3952L57.5273 65.3418L57.3995 65.065ZM57.2782 65.0195L57.3853 64.734L57.3778 64.7312L57.3703 64.7288L57.2782 65.0195ZM56.99 66.7183L57.0686 66.4236L56.9708 66.3975L56.8768 66.4351L56.99 66.7183ZM57.2175 66.7789L57.3004 66.4854L57.2961 66.4843L57.2175 66.7789ZM59.209 65.9572C59.7653 65.667 60.2112 65.3025 60.5175 64.8463C60.8255 64.3874 60.9807 63.853 60.9807 63.2449H60.3708C60.3708 63.7439 60.2454 64.1575 60.0112 64.5063C59.7752 64.8578 59.4173 65.1607 58.9269 65.4165L59.209 65.9572ZM60.9807 63.2449C60.9807 62.3961 60.6507 61.6235 60.0068 61.067C59.366 60.5133 58.4398 60.1946 57.2782 60.1946V60.8044C58.3311 60.8044 59.1036 61.0925 59.608 61.5284C60.1093 61.9616 60.3708 62.5617 60.3708 63.2449H60.9807ZM57.2782 60.1946C56.0975 60.1946 55.1464 60.5038 54.4861 61.0792C53.8211 61.6587 53.4847 62.4791 53.4847 63.4269H54.0946C54.0946 62.6303 54.3725 61.9871 54.8867 61.539C55.4057 61.0867 56.1989 60.8044 57.2782 60.8044V60.1946ZM53.4847 63.4269C53.4847 64.8097 54.2088 65.7985 55.2153 66.376L55.5188 65.8471C54.6749 65.3628 54.0946 64.5619 54.0946 63.4269H53.4847ZM55.2525 65.829C54.0482 66.3172 53.2117 67.2292 53.2117 68.599H53.8215C53.8215 67.5421 54.4411 66.816 55.4816 66.3941L55.2525 65.829ZM53.2117 68.599C53.2117 69.5749 53.5749 70.4009 54.2746 70.9769C54.9672 71.547 55.9576 71.8465 57.172 71.8465V71.2367C56.0507 71.2367 55.2134 70.9598 54.6622 70.5061C54.1181 70.0582 53.8215 69.413 53.8215 68.599H53.2117ZM57.172 71.8465C58.4114 71.8465 59.432 71.5308 60.1485 70.9341C60.8714 70.332 61.2537 69.4691 61.2537 68.4474H60.6439C60.6439 69.3065 60.3284 69.9906 59.7583 70.4655C59.1817 70.9457 58.314 71.2367 57.172 71.2367V71.8465ZM61.2537 68.4474C61.2537 67.6863 61.0329 67.0644 60.6565 66.5604C60.2835 66.061 59.7693 65.6926 59.2028 65.4134L58.9332 65.9603C59.4436 66.212 59.8698 66.5261 60.1679 66.9254C60.4627 67.3201 60.6439 67.813 60.6439 68.4474H61.2537ZM57.2327 62.3515C57.7097 62.3515 58.004 62.4802 58.1779 62.6475C58.351 62.814 58.4445 63.0567 58.4445 63.3662H59.0544C59.0544 62.9325 58.9204 62.5154 58.6006 62.2079C58.2816 61.9012 57.8174 61.7417 57.2327 61.7417V62.3515ZM58.4445 63.3662C58.4445 63.6396 58.3717 63.8848 58.2007 64.1117C58.0259 64.3438 57.7352 64.5742 57.2718 64.7881L57.5273 65.3418C58.0498 65.1007 58.4341 64.8155 58.6878 64.4787C58.9452 64.1369 59.0544 63.7602 59.0544 63.3662H58.4445ZM57.5066 64.7795L57.3853 64.734L57.1711 65.305L57.2925 65.3505L57.5066 64.7795ZM57.3703 64.7288C56.9391 64.5922 56.5976 64.4137 56.3676 64.1915C56.1458 63.9773 56.0208 63.7173 56.0208 63.3814H55.411C55.411 63.8948 55.6122 64.3098 55.944 64.6302C56.2676 64.9427 56.7073 65.1585 57.1861 65.3102L57.3703 64.7288ZM56.0208 63.3814C56.0208 63.0653 56.1175 62.8183 56.2932 62.6494C56.4696 62.4797 56.7644 62.3515 57.2327 62.3515V61.7417C56.6545 61.7417 56.1908 61.9017 55.8705 62.2098C55.5494 62.5186 55.411 62.939 55.411 63.3814H56.0208ZM57.263 69.644C56.7667 69.644 56.3992 69.5282 56.162 69.339C55.9349 69.1578 55.7933 68.883 55.7933 68.4777H55.1835C55.1835 69.0432 55.3908 69.5039 55.7818 69.8157C56.1626 70.1195 56.6824 70.2539 57.263 70.2539V69.644ZM55.7933 68.4777C55.7933 68.1806 55.8811 67.9162 56.0768 67.6776C56.2769 67.4338 56.603 67.2015 57.1033 67.0014L56.8768 66.4351C56.3153 66.6597 55.8906 66.9431 55.6053 67.2908C55.3157 67.6438 55.1835 68.0467 55.1835 68.4777H55.7933ZM56.9114 67.0129L57.139 67.0735L57.2961 66.4843L57.0686 66.4236L56.9114 67.0129ZM57.1347 67.0724C57.7492 67.2459 58.1367 67.4715 58.3685 67.7126C58.593 67.9461 58.6872 68.2102 58.6872 68.508H59.2971C59.2971 68.0627 59.1486 67.6442 58.8081 67.29C58.4749 66.9433 57.9752 66.676 57.3004 66.4855L57.1347 67.0724ZM58.6872 68.508C58.6872 68.8694 58.5693 69.1393 58.3591 69.3232C58.1436 69.5118 57.7919 69.644 57.263 69.644V70.2539C57.8869 70.2539 58.3998 70.0979 58.7607 69.7822C59.1268 69.4618 59.2971 69.0112 59.2971 68.508H58.6872ZM70.4559 67.1278L70.7595 67.1562L70.7908 66.8229H70.4559V67.1278ZM69.0605 67.1278H68.7556V67.4327H69.0605V67.1278ZM69.0605 60.6208H69.3654V60.3159H69.0605V60.6208ZM66.9977 60.7725L66.9476 60.4718L66.8432 60.4891L66.7721 60.5674L66.9977 60.7725ZM62.8114 67.1581L62.5285 67.0445L62.513 67.0831L62.5084 67.1244L62.8114 67.1581ZM62.7356 68.7507H62.4307V69.0556H62.7356V68.7507ZM67.2252 68.7507H67.5301V68.4458H67.2252V68.7507ZM67.2252 71.2686H66.9203V71.5735H67.2252V71.2686ZM69.0605 71.2686V71.5735H69.3654V71.2686H69.0605ZM69.0605 68.7507V68.4458H68.7556V68.7507H69.0605ZM70.2284 68.7507V69.0556H70.4665L70.5242 68.8247L70.2284 68.7507ZM64.5709 67.1278L64.2959 66.996L64.0867 67.4327H64.5709V67.1278ZM67.2252 62.896H67.5301V62.0192L66.9861 62.7068L67.2252 62.896ZM67.2252 67.1278V67.4327H67.5301V67.1278H67.2252ZM70.4559 66.8229H69.0605V67.4327H70.4559V66.8229ZM69.3654 67.1278V60.6208H68.7556V67.1278H69.3654ZM69.0605 60.3159C68.2453 60.3159 67.6969 60.3469 66.9476 60.4718L67.0478 61.0733C67.7547 60.9555 68.2679 60.9258 69.0605 60.9258V60.3159ZM66.7721 60.5674C65.0873 62.4207 63.4104 64.8475 62.5285 67.0445L63.0944 67.2717C63.9416 65.1612 65.5712 62.795 67.2233 60.9776L66.7721 60.5674ZM62.5084 67.1244C62.4461 67.6851 62.4307 68.0762 62.4307 68.7507H63.0405C63.0405 68.0905 63.0554 67.7232 63.1145 67.1918L62.5084 67.1244ZM62.7356 69.0556H67.2252V68.4458H62.7356V69.0556ZM66.9203 68.7507V71.2686H67.5301V68.7507H66.9203ZM67.2252 71.5735H69.0605V70.9636H67.2252V71.5735ZM69.3654 71.2686V68.7507H68.7556V71.2686H69.3654ZM69.0605 69.0556H70.2284V68.4458H69.0605V69.0556ZM70.5242 68.8247C70.6524 68.3121 70.7147 67.6344 70.7595 67.1562L70.1524 67.0993C70.1062 67.5919 70.0472 68.2186 69.9326 68.6768L70.5242 68.8247ZM64.8459 67.2595C65.5337 65.8241 66.3861 64.4479 67.4644 63.0852L66.9861 62.7068C65.8802 64.1046 65.0035 65.5192 64.2959 66.996L64.8459 67.2595ZM66.9203 62.896V67.1278H67.5301V62.896H66.9203ZM67.2252 66.8229H64.5709V67.4327H67.2252V66.8229Z" fill="#EC0000"/>
</svg>
