<svg width="68" height="77" viewBox="0 0 68 77" fill="none" xmlns="http://www.w3.org/2000/svg">
<path d="M13 42C11.8693 44.1521 11.2024 46.5013 11.0394 48.907C10.8764 51.3127 11.2205 53.7252 12.0512 56" stroke="#EC0000" stroke-width="3" stroke-linecap="round" stroke-linejoin="round"/>
<path d="M52 40.9548L55 37V48" stroke="#EA1D25" stroke-width="3" stroke-linecap="round" stroke-linejoin="round"/>
<path d="M54 55C60.6274 55 66 49.6274 66 43C66 36.3726 60.6274 31 54 31C47.3726 31 42 36.3726 42 43C42 49.6274 47.3726 55 54 55Z" stroke="#EC0000" stroke-width="3" stroke-linecap="round" stroke-linejoin="round"/>
<path d="M59.9872 54C63.5743 54.7422 66 56.1301 66 57.7205C66 60.0819 60.6245 62 53.9949 62C47.3654 62 42 60.0723 42 57.7205C42 56.1301 44.4154 54.7422 48.0025 54" stroke="#EC0000" stroke-width="3" stroke-linecap="round" stroke-linejoin="round"/>
<path d="M62.06 61C64.4634 61.8421 66 63.0539 66 64.4403C66 66.9564 60.8483 69 54.495 69C48.1417 69 43 66.9461 43 64.4403C43 63.0745 44.5169 61.8421 46.94 61" stroke="#EC0000" stroke-width="3" stroke-linecap="round" stroke-linejoin="round"/>
<path d="M62.9165 67C64.8591 67.8495 66 68.9785 66 70.2258C66 72.8602 60.6244 75 53.9949 75C47.3653 75 42 72.8495 42 70.2258C42 68.9785 43.182 67.8495 45.0835 67" stroke="#EC0000" stroke-width="3" stroke-linecap="round" stroke-linejoin="round"/>
<path d="M29.2944 12.5962L24.3594 2.2685L33.0649 4.63707L41.7704 2L36.8354 12.5962" stroke="#EC0000" stroke-width="3" stroke-linecap="round" stroke-linejoin="round"/>
<path d="M42.0297 71.7145C42.0297 71.7145 3.6531 80.9338 2.02697 49.9928C1.01064 31.5238 29.0512 14 29.0512 14H36.8668C36.8668 14 47.3859 22.5992 52 30.2633" stroke="#EC0000" stroke-width="3" stroke-linecap="round" stroke-linejoin="round"/>
</svg>
