<svg width="94" height="94" viewBox="0 0 94 94" fill="none" xmlns="http://www.w3.org/2000/svg">
<circle cx="47" cy="47" r="45.5" stroke="#EC0000" stroke-width="3"/>
<path d="M62.7718 30H50.75" stroke="#EC0000" stroke-width="3" stroke-linecap="round" stroke-linejoin="round"/>
<path d="M59.1884 34.3682H50.75" stroke="#EC0000" stroke-width="3" stroke-linecap="round" stroke-linejoin="round"/>
<path d="M36.3359 31.7158L38.6883 34.3686L44.8437 26.6816" stroke="#EC0000" stroke-width="3" stroke-linecap="round" stroke-linejoin="round"/>
<path d="M62.7718 45H50.75" stroke="#EC0000" stroke-width="3" stroke-linecap="round" stroke-linejoin="round"/>
<path d="M59.1884 49.748H50.75" stroke="#EC0000" stroke-width="3" stroke-linecap="round" stroke-linejoin="round"/>
<path d="M36.3359 48.0341L38.6883 50.6928L44.8437 43" stroke="#EC0000" stroke-width="3" stroke-linecap="round" stroke-linejoin="round"/>
<path d="M62.7718 60H50.75" stroke="#EC0000" stroke-width="3" stroke-linecap="round" stroke-linejoin="round"/>
<path d="M59.1884 65.082H50.75" stroke="#EC0000" stroke-width="3" stroke-linecap="round" stroke-linejoin="round"/>
<path d="M36.3359 64.0283L38.6883 66.687L44.8437 59" stroke="#EC0000" stroke-width="3" stroke-linecap="round" stroke-linejoin="round"/>
<path d="M66.8107 20.8672H30.335C28.4198 20.8672 26.8672 22.4198 26.8672 24.335V70.4455C26.8672 72.3607 28.4198 73.9133 30.335 73.9133H66.8107C68.7259 73.9133 70.2785 72.3607 70.2785 70.4455V24.335C70.2785 22.4198 68.7259 20.8672 66.8107 20.8672Z" stroke="#EC0000" stroke-width="3" stroke-linecap="round" stroke-linejoin="round"/>
</svg>
