<svg width="71" height="65" viewBox="0 0 71 65" fill="none" xmlns="http://www.w3.org/2000/svg">
<path d="M38.4976 31.0251V31.2751H38.7476H54.2033C54.5926 31.2751 54.9659 31.4294 55.241 31.704C55.5161 31.9785 55.6706 32.3508 55.6706 32.7388C55.6706 33.1268 55.5161 33.4991 55.241 33.7736C54.9659 34.0482 54.5926 34.2025 54.2033 34.2025H37.0303H37.0221L37.0139 34.2031C36.8199 34.2159 36.6254 34.1872 36.4434 34.1189C36.2615 34.0506 36.0963 33.9444 35.9589 33.8073C35.8215 33.6702 35.7151 33.5054 35.6467 33.324C35.5784 33.1426 35.5497 32.9487 35.5625 32.7553L35.563 32.7471V32.7388V8.74654V8.73827L35.5625 8.73001C35.5497 8.53665 35.5784 8.34278 35.6467 8.16137C35.7151 7.97997 35.8215 7.81519 35.9589 7.67808C36.0963 7.54098 36.2615 7.43471 36.4434 7.36644C36.6254 7.29816 36.8199 7.26946 37.0139 7.28227L37.0221 7.28281H37.0303C37.4196 7.28281 37.7929 7.43715 38.068 7.71171C38.3432 7.98625 38.4976 8.3585 38.4976 8.74654V31.0251Z" fill="#EC0000" stroke="#EC0000" stroke-width="0.5"/>
<path d="M37.5748 0.250213L37.5742 0.250213C31.8773 0.236608 26.2777 1.72317 21.3407 4.55978C16.4037 7.3964 12.3041 11.4826 9.45582 16.4059L9.45408 16.4088C9.35174 16.5803 9.28565 16.7708 9.25984 16.9687C9.23404 17.1666 9.24907 17.3676 9.304 17.5595C9.35894 17.7514 9.45264 17.9301 9.57935 18.0845L9.38607 18.2431L9.57935 18.0845C9.70533 18.2381 9.8613 18.3645 10.0378 18.4561C10.3705 18.6153 10.7512 18.6436 11.1039 18.5353C11.4575 18.4267 11.7567 18.189 11.942 17.8699C15.3894 11.8393 20.8598 7.21708 27.3884 4.8182C33.9172 2.41926 41.0851 2.39777 47.6281 4.75751C54.1712 7.11726 59.6694 11.7067 63.1531 17.7168C66.6368 23.7269 67.8822 30.7715 66.6696 37.6084C65.457 44.4453 61.8643 50.6353 56.5253 55.087C51.1862 59.5386 44.4436 61.9661 37.4864 61.9413C30.5292 61.9166 23.8041 59.4413 18.497 54.9518C13.1898 50.4623 9.64148 44.2469 8.47774 37.4015L8.34226 36.6045L8.90399 37.1859L13.5262 41.9693C13.806 42.1731 14.1493 42.2716 14.4953 42.2471C14.8478 42.2221 15.1793 42.0711 15.429 41.8219C15.6787 41.5727 15.8299 41.2421 15.8549 40.8908C15.8796 40.5443 15.7799 40.2004 15.5739 39.9206L8.02854 32.0486L7.95902 31.9761L7.95902 31.9555C7.93253 31.9543 7.90259 31.9543 7.86556 31.9543L7.6889 31.9543L7.62991 31.7877C7.55899 31.5875 7.42804 31.4139 7.25474 31.2903L7.39985 31.0868L7.25474 31.2903C7.08143 31.1668 6.87417 31.0994 6.66109 31.0974L6.65193 31.0973L6.64281 31.0965C6.36282 31.0734 6.08324 31.1454 5.84955 31.3008C5.61589 31.4563 5.4419 31.686 5.35578 31.9525L5.33214 32.0257L5.27149 32.0729C5.19608 32.1316 5.13479 32.2064 5.09205 32.2916C5.04932 32.3769 5.02621 32.4706 5.02438 32.5659L5.02335 32.6197L5.00028 32.6683L0.365764 42.432C0.217936 42.7809 0.211435 43.1735 0.347743 43.5271C0.484169 43.8811 0.753016 44.1685 1.09772 44.3287C1.44789 44.4767 1.84206 44.4834 2.19711 44.3471C2.55329 44.2104 2.84196 43.9406 3.00204 43.5953L3.00201 43.5953L3.00381 43.5915L5.40803 38.6217L5.72793 37.9604L5.87782 38.6796C7.50153 46.4701 11.9489 53.3889 18.368 58.11C24.787 62.8311 32.7261 65.0224 40.6641 64.264C48.602 63.5055 55.9801 59.8507 61.3848 53.9999C66.7891 48.1496 69.8401 40.5151 69.9534 32.5592C69.9529 23.9907 66.5418 15.7731 60.4701 9.71406C54.398 3.65452 46.1623 0.250214 37.5748 0.250213Z" fill="#EC0000" stroke="#EC0000" stroke-width="0.5"/>
</svg>
