<svg width="94" height="94" viewBox="0 0 94 94" fill="none" xmlns="http://www.w3.org/2000/svg">
<circle cx="47" cy="47" r="45.5" stroke="#EC0000" stroke-width="3"/>
<path d="M36.3354 63.5319V26.4661C36.3354 24.821 35.6819 23.2432 34.5186 22.08C33.3554 20.9167 31.7776 20.2632 30.1325 20.2632C28.4874 20.2632 26.9097 20.9167 25.7465 22.08C24.5832 23.2432 23.9297 24.821 23.9297 26.4661H35.1326" stroke="#EC0000" stroke-width="3" stroke-linecap="round" stroke-linejoin="round"/>
<path d="M30.1406 20.248H62.1458C63.7909 20.248 65.3687 20.9015 66.5319 22.0647C67.6952 23.228 68.3487 24.8058 68.3487 26.4509V62.5636" stroke="#EC0000" stroke-width="3" stroke-linecap="round" stroke-linejoin="round"/>
<path d="M42.5388 69.7348H74.544C76.1891 69.7348 77.7668 69.0813 78.9301 67.918C80.0934 66.7548 80.7468 65.1771 80.7468 63.532H48.7416C48.7416 64.3466 48.5812 65.1531 48.2695 65.9057C47.9578 66.6582 47.5009 67.342 46.9249 67.918C46.3489 68.494 45.6651 68.9509 44.9125 69.2627C44.16 69.5744 43.3534 69.7348 42.5388 69.7348ZM42.5388 69.7348C41.7242 69.7348 40.9176 69.5744 40.1651 69.2627C39.4125 68.9509 38.7287 68.494 38.1527 67.918C37.5767 67.342 37.1198 66.6582 36.8081 65.9057C36.4964 65.1531 36.3359 64.3466 36.3359 63.532" stroke="#EC0000" stroke-width="3" stroke-linecap="round" stroke-linejoin="round"/>
<path d="M43.2812 30.6038H60.8762" stroke="#EC0000" stroke-width="3" stroke-linecap="round" stroke-linejoin="round"/>
<path d="M43.2812 38.3877H60.8762" stroke="#EC0000" stroke-width="3" stroke-linecap="round" stroke-linejoin="round"/>
<path d="M43.2812 46.1638H60.8762" stroke="#EC0000" stroke-width="3" stroke-linecap="round" stroke-linejoin="round"/>
<path d="M51.25 53.9402H60.8796" stroke="#EC0000" stroke-width="3" stroke-linecap="round" stroke-linejoin="round"/>
<path d="M30.1517 74.6818C30.5224 74.6818 30.9082 74.7347 31.2789 74.7347C33.7908 74.7347 36.2464 73.9898 38.335 72.5942C40.4236 71.1987 42.0515 69.215 43.0128 66.8943C43.9741 64.5735 44.2256 62.0199 43.7356 59.5562C43.2455 57.0925 42.0359 54.8295 40.2596 53.0532C38.4834 51.277 36.2204 50.0674 33.7567 49.5773C31.293 49.0872 28.7392 49.3388 26.4185 50.3C24.0977 51.2613 22.1142 52.8892 20.7186 54.9778C19.323 57.0664 18.5781 59.522 18.5781 62.034V62.155" fill="white"/>
<path d="M30.1517 74.6818C30.5224 74.6818 30.9082 74.7347 31.2789 74.7347C33.7908 74.7347 36.2464 73.9898 38.335 72.5942C40.4236 71.1987 42.0515 69.215 43.0128 66.8943C43.9741 64.5735 44.2256 62.0199 43.7356 59.5562C43.2455 57.0925 42.0358 54.8295 40.2596 53.0532C38.4834 51.277 36.2204 50.0674 33.7567 49.5773C31.293 49.0872 28.7392 49.3388 26.4185 50.3C24.0977 51.2613 22.1142 52.8892 20.7186 54.9778C19.323 57.0664 18.5781 59.522 18.5781 62.034V62.155" stroke="#EA1D25" stroke-width="3" stroke-linecap="round" stroke-linejoin="round"/>
<path d="M31.4688 62.3441V53.5239" stroke="#EA1D25" stroke-width="3" stroke-linecap="round" stroke-linejoin="round"/>
<path d="M37.3009 66.9661L31.4688 62.3442" stroke="#EA1D25" stroke-width="3" stroke-linecap="round" stroke-linejoin="round"/>
</svg>
