<svg width="318" height="291" viewBox="0 0 318 291" fill="none" xmlns="http://www.w3.org/2000/svg">
<g clip-path="url(#clip0_1936_7336)">
<path d="M301.25 128.074C301.592 120.815 301.011 113.543 299.521 106.431C297.643 97.4894 294.839 88.7677 291.154 80.4073C281.116 56.5224 263.924 36.3342 241.944 22.6191C223.468 11.0324 203.198 4.46046 181.622 1.58359C174.065 0.581161 166.454 0.0522459 158.831 -3.05176e-05C154.872 0.145133 150.821 0.250714 146.822 0.461861C138.789 0.90383 130.795 1.8959 122.897 3.43111C108.621 6.1123 94.7185 10.494 81.4856 16.4826C59.7517 26.1002 40.9122 41.2364 26.8382 60.3879C10.2104 83.0598 2.08127 108.265 3.49331 136.322C3.91505 144.547 5.1438 152.711 7.16194 160.696C11.0227 175.887 17.2104 190.391 25.5053 203.69C39.8324 226.95 59.0131 246.842 81.7363 262.007C96.6889 272.206 113.171 279.957 130.564 284.969C142.022 288.265 153.853 290.092 165.773 290.406C174.816 290.616 183.853 289.788 192.707 287.938C197.128 287.04 201.481 285.832 205.732 284.322C206.922 283.928 207.929 283.116 208.565 282.036C209.201 280.955 209.423 279.681 209.19 278.45C209.002 277.188 208.364 276.038 207.393 275.211C206.423 274.384 205.186 273.936 203.911 273.949C200.638 273.778 197.313 273.646 194.132 273.237C187.713 272.486 181.518 270.419 175.934 267.166C168.523 262.957 162.574 256.585 158.884 248.902C156.733 244.519 155.996 239.576 156.773 234.755C157.577 230.201 159.587 225.945 162.592 222.43C165.983 218.382 170.101 215.002 174.733 212.466C184.763 206.752 195.703 204.1 207.144 203.07C210.958 202.727 214.759 202.331 218.546 201.751C229.129 200.132 239.474 197.22 249.347 193.08C259.677 188.942 269.251 183.123 277.68 175.859C292.157 163.098 300.207 147.248 301.25 128.074ZM314.367 150.666C313.296 149.782 311.993 149.227 310.613 149.068C309.234 148.909 307.838 149.152 306.594 149.769C301.949 152.171 302.2 154.942 296.591 165.605C290.983 176.268 279.805 183.434 273.735 187.313C267.664 191.193 268.825 195.337 274.196 195.152C279.567 194.967 297.95 188.844 310.223 175.133C322.496 161.422 317.31 152.514 314.367 150.666ZM75.138 266.665C55.0828 254.027 38.1069 237.064 25.4525 217.019C23.3806 213.733 17.8776 212.664 15.8057 216.729C9.47134 229.107 25.7692 251.04 32.0772 257.19C39.2298 264.105 48.6127 272.208 63.9472 276.602C67.6664 277.68 71.6189 277.652 75.3227 276.523C80.3111 274.57 80.2583 269.885 75.138 266.665ZM11.9259 192.341C8.99626 189.095 5.53872 186.997 2.18677 189.253C-1.16518 191.51 0.299679 196.96 0.484432 197.686C0.669185 198.412 2.82023 204.39 8.23087 205.604C9.1913 205.947 10.2202 206.054 11.2308 205.917C12.2414 205.779 13.204 205.4 14.0374 204.812C16.7955 202.727 14.8688 195.654 11.9259 192.341Z" fill="#EC0000"/>
<path d="M62.8318 44.7412C67.3478 44.7412 70.606 45.7262 72.6064 47.6963C74.6371 49.6361 75.6524 52.1972 75.6524 55.3796C75.6524 57.6224 75.1675 59.5773 74.1976 61.2443C73.258 62.9113 71.8638 64.2146 70.015 65.1542C68.1662 66.0634 65.9385 66.5181 63.3319 66.5181H60.0131V76.9746H54.1029V45.5141C55.3152 45.3019 56.7246 45.1201 58.331 44.9685C59.9676 44.817 61.4679 44.7412 62.8318 44.7412ZM63.2864 61.699C65.3777 61.6687 66.9386 61.1231 67.9691 60.0623C69.03 59.0015 69.5604 57.5164 69.5604 55.6069C69.5604 53.6671 69.0451 52.182 68.0146 51.1515C67.0144 50.121 65.3626 49.6058 63.0591 49.6058C62.0286 49.6058 61.0133 49.6664 60.0131 49.7876V61.699H63.2864ZM88.315 77.5201C86.0721 77.5201 84.1324 77.0504 82.4957 76.1108C80.8893 75.1712 79.6618 73.8073 78.8132 72.0191C77.9645 70.2309 77.5402 68.1093 77.5402 65.6543C77.5402 63.1689 77.9494 61.0322 78.7677 59.244C79.6164 57.4557 80.8439 56.0918 82.4502 55.1523C84.0869 54.2127 86.0418 53.7429 88.315 53.7429C90.5881 53.7429 92.5279 54.2127 94.1342 55.1523C95.7709 56.0918 97.0136 57.4557 97.8622 59.244C98.7109 61.0322 99.1352 63.1689 99.1352 65.6543C99.1352 68.1093 98.7109 70.2309 97.8622 72.0191C97.0136 73.8073 95.7709 75.1712 94.1342 76.1108C92.5279 77.0504 90.5881 77.5201 88.315 77.5201ZM88.315 72.8374C89.9819 72.8374 91.2095 72.2464 91.9975 71.0644C92.7855 69.8823 93.1795 68.079 93.1795 65.6543C93.1795 63.1992 92.7855 61.3807 91.9975 60.1987C91.2095 59.0166 89.9819 58.4256 88.315 58.4256C86.6783 58.4256 85.4659 59.0166 84.6779 60.1987C83.8899 61.3807 83.4959 63.1992 83.4959 65.6543C83.4959 68.079 83.8899 69.8823 84.6779 71.0644C85.4659 72.2464 86.6783 72.8374 88.315 72.8374ZM111.155 53.8338C112.974 53.8338 114.58 53.9399 115.974 54.1521C115.974 55.0007 115.914 55.8494 115.792 56.698C115.702 57.5467 115.58 58.2892 115.429 58.9257C114.338 58.7439 113.019 58.6529 111.473 58.6529C110.443 58.6529 109.458 58.7135 108.518 58.8348V76.9746H102.699V55.0159C104.002 54.6825 105.381 54.4097 106.836 54.1975C108.321 53.9551 109.761 53.8338 111.155 53.8338ZM135.099 72.2464C134.887 74.368 134.674 75.9441 134.462 76.9746H117.323C117.323 75.7016 117.383 74.565 117.504 73.5648L127.324 58.9712H117.459C117.52 58.1831 117.595 57.38 117.686 56.5616C117.777 55.7433 117.898 54.9856 118.05 54.2885H134.644C134.644 55.228 134.538 56.3343 134.326 57.6073L124.506 72.2464H135.099ZM157.797 54.2885V76.0653C156.312 76.5199 154.766 76.8685 153.16 77.111C151.584 77.3837 150.068 77.5201 148.613 77.5201C145.007 77.5201 142.43 76.8079 140.885 75.3834C139.369 73.9589 138.611 71.9282 138.611 69.2913V54.2885H144.431V68.6548C144.431 70.14 144.749 71.2159 145.385 71.8827C146.052 72.5495 147.158 72.8829 148.704 72.8829C149.674 72.8829 150.765 72.7768 151.978 72.5647V54.2885H157.797ZM172.229 77.5201C170.016 77.5201 168.091 77.0807 166.455 76.2017C164.848 75.2924 163.591 73.9589 162.681 72.2009C161.802 70.443 161.363 68.276 161.363 65.6997C161.363 61.9111 162.287 58.9712 164.136 56.8799C165.985 54.7886 168.834 53.7429 172.683 53.7429C173.653 53.7429 174.562 53.8187 175.411 53.9702C176.29 54.0915 177.017 54.2733 177.593 54.5158C177.593 55.2432 177.533 56.0312 177.411 56.8799C177.32 57.7285 177.199 58.5014 177.048 59.1985C175.835 58.7439 174.517 58.5165 173.092 58.5165C171.092 58.5165 169.622 59.1227 168.682 60.3351C167.743 61.5171 167.273 63.3053 167.273 65.6997C167.273 68.0335 167.803 69.8066 168.864 71.0189C169.925 72.2313 171.38 72.8374 173.229 72.8374C173.956 72.8374 174.699 72.7465 175.456 72.5647C176.244 72.3525 176.942 72.0797 177.548 71.7463C177.427 73.6255 177.214 75.2318 176.911 76.5654C176.366 76.8685 175.653 77.0958 174.775 77.2474C173.926 77.4292 173.077 77.5201 172.229 77.5201ZM184.192 50.515C183.223 50.515 182.404 50.1968 181.737 49.5603C181.101 48.9238 180.783 48.1055 180.783 47.1053C180.783 46.1051 181.101 45.2868 181.737 44.6503C182.404 44.0138 183.223 43.6956 184.192 43.6956C184.799 43.6956 185.359 43.8471 185.875 44.1502C186.39 44.423 186.784 44.817 187.057 45.3322C187.36 45.8475 187.511 46.4385 187.511 47.1053C187.511 47.7418 187.36 48.3176 187.057 48.8329C186.784 49.3481 186.39 49.7573 185.875 50.0604C185.359 50.3635 184.799 50.515 184.192 50.515ZM181.283 54.2885H187.102V76.9746H181.283V54.2885ZM201.713 52.9246C201.652 54.7128 201.516 56.1525 201.304 57.2436L198.167 59.3349V76.9746H192.347V63.2447L188.892 65.5633C188.953 63.866 189.089 62.4264 189.301 61.2443L192.347 59.1985V45.5141C194.257 44.9685 196.197 44.6957 198.167 44.6957V55.2887L201.713 52.9246ZM222.349 63.8812C222.349 64.548 222.319 65.2148 222.258 65.8816C222.228 66.5484 222.182 67.1394 222.122 67.6546H208.073C208.346 69.5944 208.998 70.9734 210.028 71.7918C211.059 72.5798 212.589 72.9738 214.62 72.9738C217.045 72.9738 219.409 72.4131 221.712 71.2917C221.561 73.1102 221.318 74.7014 220.985 76.0653C219.045 77.0352 216.681 77.5201 213.893 77.5201C209.922 77.5201 206.982 76.4745 205.073 74.3832C203.163 72.2616 202.209 69.2762 202.209 65.4269C202.209 63.1235 202.588 61.1079 203.345 59.3803C204.103 57.6224 205.255 56.2434 206.8 55.2432C208.377 54.243 210.316 53.7429 212.62 53.7429C214.802 53.7429 216.62 54.1824 218.075 55.0613C219.53 55.9403 220.606 57.1375 221.303 58.6529C222 60.1684 222.349 61.9111 222.349 63.8812ZM212.483 58.2438C211.18 58.2438 210.15 58.6832 209.392 59.5622C208.664 60.4411 208.21 61.7444 208.028 63.472H216.666C216.636 61.7444 216.272 60.4411 215.575 59.5622C214.908 58.6832 213.878 58.2438 212.483 58.2438ZM232.446 77.5201C230.991 77.5201 229.627 77.3837 228.354 77.111C227.112 76.8382 226.005 76.4593 225.035 75.9744C225.066 74.3377 225.308 72.8374 225.763 71.4735C226.763 71.9888 227.794 72.3828 228.854 72.6556C229.915 72.898 230.961 73.0193 231.991 73.0193C233.234 73.0193 234.158 72.8374 234.765 72.4737C235.371 72.11 235.674 71.5493 235.674 70.7916C235.674 70.1854 235.462 69.6853 235.037 69.2913C234.613 68.8973 233.916 68.5184 232.946 68.1547L231.082 67.4273C229.112 66.6696 227.612 65.7603 226.581 64.6995C225.581 63.6387 225.081 62.2294 225.081 60.4715C225.081 58.3802 225.808 56.7435 227.263 55.5614C228.748 54.3491 230.961 53.7429 233.901 53.7429C235.143 53.7429 236.341 53.8338 237.492 54.0157C238.674 54.1672 239.72 54.4097 240.629 54.7431C240.569 56.1676 240.372 57.6527 240.038 59.1985C239.068 58.8954 238.129 58.6681 237.22 58.5165C236.341 58.3347 235.386 58.2438 234.355 58.2438C233.052 58.2438 232.113 58.4256 231.537 58.7893C230.991 59.1227 230.718 59.638 230.718 60.3351C230.718 60.9109 230.946 61.411 231.4 61.8354C231.885 62.2597 232.658 62.6688 233.719 63.0629L235.719 63.8357C237.75 64.6238 239.22 65.5179 240.129 66.5181C241.069 67.5182 241.539 68.8367 241.539 70.4733C241.539 71.8372 241.205 73.0496 240.538 74.1104C239.872 75.1712 238.856 76.0047 237.492 76.6109C236.128 77.217 234.446 77.5201 232.446 77.5201ZM232.037 44.2411C232.916 43.9683 233.977 43.7562 235.219 43.6046C236.492 43.4228 237.614 43.3319 238.583 43.3319C238.341 44.6351 237.826 45.8626 237.038 47.0144C236.25 48.1358 235.28 49.0602 234.128 49.7876C233.007 50.4847 231.794 50.8787 230.491 50.9697H230.355L232.037 44.2411Z" fill="white"/>
<path d="M32.7402 92.0551C34.4969 91.5532 36.2815 91.3023 38.094 91.3023V120.999H32.7402V92.0551ZM59.9847 100.128V120.162C58.6184 120.581 57.1963 120.901 55.7184 121.124C54.2685 121.375 52.8743 121.501 51.5358 121.501C48.2176 121.501 45.8475 120.845 44.4254 119.535C43.0312 118.224 42.3341 116.356 42.3341 113.93V100.128H47.6878V113.345C47.6878 114.711 47.9806 115.701 48.5662 116.314C49.1796 116.928 50.1974 117.234 51.6195 117.234C52.5118 117.234 53.5156 117.137 54.631 116.942V100.128H59.9847ZM73.2619 99.6257C76.4964 99.6257 78.9363 100.518 80.5814 102.303C82.2545 104.087 83.091 106.736 83.091 110.249C83.091 113.763 82.1848 116.523 80.3723 118.531C78.5598 120.511 75.8133 121.501 72.1326 121.501C69.623 121.501 67.0577 121.11 64.4366 120.33V92.0551C66.1933 91.5532 67.9778 91.3023 69.7903 91.3023V100.169C70.8778 99.8069 72.035 99.6257 73.2619 99.6257ZM72.3417 117.193C74.2657 117.193 75.6181 116.607 76.3988 115.436C77.2075 114.265 77.6118 112.592 77.6118 110.417C77.6118 108.214 77.2214 106.583 76.4406 105.523C75.6599 104.464 74.4051 103.934 72.6763 103.934C71.7561 103.934 70.7941 104.115 69.7903 104.477V116.942C70.5432 117.109 71.3936 117.193 72.3417 117.193ZM103.19 99.6257C106.564 99.6257 109.129 100.532 110.886 102.344C112.643 104.129 113.521 106.764 113.521 110.249C113.521 112.536 113.117 114.53 112.308 116.231C111.527 117.904 110.328 119.2 108.711 120.12C107.122 121.041 105.114 121.501 102.688 121.501C101.852 121.501 101.029 121.459 100.22 121.375V129.866H94.8667V101.299C96.1493 100.769 97.5017 100.365 98.9238 100.086C100.374 99.779 101.796 99.6257 103.19 99.6257ZM102.814 117.151C104.682 117.151 106.02 116.565 106.829 115.394C107.665 114.223 108.084 112.564 108.084 110.417C108.084 108.242 107.679 106.625 106.871 105.565C106.062 104.477 104.752 103.934 102.939 103.934C102.019 103.934 101.113 104.059 100.22 104.31V116.9C101.029 117.067 101.893 117.151 102.814 117.151ZM124.703 99.7093C126.376 99.7093 127.854 99.8069 129.137 100.002C129.137 100.783 129.081 101.564 128.969 102.344C128.886 103.125 128.774 103.808 128.635 104.394C127.631 104.227 126.418 104.143 124.996 104.143C124.048 104.143 123.142 104.199 122.277 104.31V120.999H116.923V100.797C118.122 100.49 119.391 100.239 120.73 100.044C122.096 99.8208 123.42 99.7093 124.703 99.7093ZM146.731 116.649C146.536 118.601 146.341 120.051 146.145 120.999H130.377C130.377 119.828 130.433 118.782 130.544 117.862L139.579 104.436H130.503C130.558 103.711 130.628 102.972 130.712 102.219C130.795 101.466 130.907 100.769 131.046 100.128H146.313C146.313 100.992 146.215 102.01 146.02 103.181L136.986 116.649H146.731ZM166.794 108.953C166.794 109.566 166.767 110.18 166.711 110.793C166.683 111.407 166.641 111.95 166.585 112.424H153.661C153.912 114.209 154.512 115.478 155.46 116.231C156.408 116.956 157.816 117.318 159.684 117.318C161.915 117.318 164.09 116.802 166.209 115.771C166.069 117.444 165.846 118.907 165.54 120.162C163.755 121.055 161.58 121.501 159.015 121.501C155.362 121.501 152.657 120.539 150.901 118.615C149.144 116.663 148.266 113.916 148.266 110.375C148.266 108.256 148.614 106.401 149.311 104.812C150.008 103.195 151.068 101.926 152.49 101.006C153.94 100.086 155.725 99.6257 157.844 99.6257C159.851 99.6257 161.524 100.03 162.863 100.839C164.201 101.647 165.191 102.749 165.832 104.143C166.474 105.537 166.794 107.14 166.794 108.953ZM157.718 103.766C156.519 103.766 155.571 104.171 154.874 104.979C154.205 105.788 153.787 106.987 153.619 108.576H161.566C161.538 106.987 161.204 105.788 160.562 104.979C159.949 104.171 159.001 103.766 157.718 103.766ZM178.374 99.7093C180.047 99.7093 181.525 99.8069 182.808 100.002C182.808 100.783 182.752 101.564 182.641 102.344C182.557 103.125 182.446 103.808 182.306 104.394C181.302 104.227 180.089 104.143 178.667 104.143C177.719 104.143 176.813 104.199 175.949 104.31V120.999H170.595V100.797C171.794 100.49 173.063 100.239 174.401 100.044C175.767 99.8208 177.092 99.7093 178.374 99.7093ZM214.786 100.128L208.386 120.999H203.158L199.017 106.862L194.751 120.999H189.815L182.998 100.128H188.603L192.451 115.143L196.466 100.128H201.694L206.044 115.31L209.557 100.128H214.786ZM226.002 99.6257C228.79 99.6257 231.397 99.9742 233.823 100.671V120.999H228.93L228.595 118.071C227.536 120.357 225.793 121.501 223.367 121.501C220.913 121.501 218.975 120.622 217.553 118.866C216.131 117.081 215.42 114.362 215.42 110.71C215.42 107.168 216.256 104.436 217.929 102.512C219.603 100.588 222.293 99.6257 226.002 99.6257ZM224.998 117.193C226.42 117.193 227.591 116.733 228.511 115.812V104.185C227.759 104.017 226.88 103.934 225.876 103.934C224.008 103.934 222.698 104.505 221.945 105.649C221.22 106.764 220.857 108.409 220.857 110.584C220.857 112.898 221.206 114.585 221.903 115.645C222.6 116.677 223.632 117.193 224.998 117.193ZM247.269 98.8728C247.213 100.518 247.088 101.842 246.892 102.846L244.006 104.77V120.999H238.653V108.367L235.474 110.5C235.53 108.939 235.655 107.614 235.85 106.527L238.653 104.645V92.0551C240.409 91.5532 242.194 91.3023 244.006 91.3023V101.048L247.269 98.8728ZM266.254 108.953C266.254 109.566 266.226 110.18 266.17 110.793C266.142 111.407 266.101 111.95 266.045 112.424H253.121C253.372 114.209 253.971 115.478 254.919 116.231C255.867 116.956 257.275 117.318 259.144 117.318C261.374 117.318 263.549 116.802 265.668 115.771C265.529 117.444 265.306 118.907 264.999 120.162C263.215 121.055 261.04 121.501 258.474 121.501C254.822 121.501 252.117 120.539 250.36 118.615C248.603 116.663 247.725 113.916 247.725 110.375C247.725 108.256 248.074 106.401 248.771 104.812C249.468 103.195 250.527 101.926 251.949 101.006C253.399 100.086 255.184 99.6257 257.303 99.6257C259.311 99.6257 260.984 100.03 262.322 100.839C263.661 101.647 264.651 102.749 265.292 104.143C265.933 105.537 266.254 107.14 266.254 108.953ZM257.178 103.766C255.979 103.766 255.031 104.171 254.334 104.979C253.664 105.788 253.246 106.987 253.079 108.576H261.026C260.998 106.987 260.663 105.788 260.022 104.979C259.408 104.171 258.46 103.766 257.178 103.766ZM275.543 121.501C274.205 121.501 272.95 121.375 271.779 121.124C270.636 120.873 269.618 120.525 268.726 120.079C268.754 118.573 268.977 117.193 269.395 115.938C270.315 116.412 271.263 116.774 272.239 117.025C273.215 117.248 274.177 117.36 275.125 117.36C276.268 117.36 277.119 117.193 277.676 116.858C278.234 116.523 278.513 116.008 278.513 115.31C278.513 114.753 278.318 114.293 277.927 113.93C277.537 113.568 276.896 113.219 276.003 112.885L274.289 112.215C272.476 111.518 271.096 110.682 270.148 109.706C269.228 108.73 268.767 107.433 268.767 105.816C268.767 103.892 269.437 102.386 270.775 101.299C272.141 100.183 274.177 99.6257 276.882 99.6257C278.025 99.6257 279.126 99.7093 280.186 99.8766C281.273 100.016 282.235 100.239 283.072 100.546C283.016 101.856 282.835 103.223 282.528 104.645C281.636 104.366 280.772 104.157 279.935 104.017C279.126 103.85 278.248 103.766 277.3 103.766C276.101 103.766 275.237 103.934 274.707 104.268C274.205 104.575 273.954 105.049 273.954 105.69C273.954 106.22 274.163 106.68 274.581 107.071C275.027 107.461 275.738 107.838 276.714 108.2L278.555 108.911C280.423 109.636 281.775 110.459 282.612 111.379C283.476 112.299 283.909 113.512 283.909 115.018C283.909 116.272 283.602 117.388 282.988 118.364C282.375 119.34 281.441 120.107 280.186 120.664C278.931 121.222 277.384 121.501 275.543 121.501ZM275.167 90.884C275.975 90.6331 276.951 90.4379 278.095 90.2984C279.266 90.1311 280.298 90.0475 281.19 90.0475C280.967 91.2465 280.493 92.3758 279.768 93.4354C279.043 94.4671 278.15 95.3176 277.091 95.9868C276.059 96.6281 274.944 96.9906 273.745 97.0743H273.619L275.167 90.884Z" fill="white"/>
<path d="M41.023 154.581C41.023 155.374 40.987 156.167 40.9149 156.959C40.8788 157.752 40.8248 158.455 40.7527 159.068H24.0506C24.3749 161.374 25.1497 163.013 26.3748 163.986C27.6 164.923 29.4198 165.392 31.8341 165.392C34.7169 165.392 37.5276 164.725 40.2663 163.392C40.0861 165.554 39.7978 167.446 39.4014 169.067C37.0952 170.22 34.2845 170.797 30.9693 170.797C26.2487 170.797 22.7533 169.554 20.4832 167.067C18.213 164.545 17.0779 160.995 17.0779 156.419C17.0779 153.68 17.5283 151.284 18.4292 149.23C19.33 147.14 20.6994 145.5 22.5371 144.311C24.4109 143.122 26.7172 142.528 29.4558 142.528C32.0503 142.528 34.2124 143.05 35.9421 144.095C37.6718 145.14 38.951 146.563 39.7798 148.365C40.6086 150.167 41.023 152.239 41.023 154.581ZM29.2937 147.879C27.7442 147.879 26.519 148.401 25.6181 149.446C24.7533 150.491 24.2128 152.041 23.9965 154.095H34.2665C34.2304 152.041 33.798 150.491 32.9692 149.446C32.1764 148.401 30.9513 147.879 29.2937 147.879ZM45.1233 158.203C45.1594 156.581 45.3756 154.617 45.772 152.311H61.0147C60.9066 154.005 60.7084 155.969 60.4201 158.203H45.1233ZM110.639 132.744L101.018 170.148H92.6394L86.3153 144.257L80.0453 170.148H71.5591L61.7216 132.744H69.2889L75.8292 163.067L82.856 132.744H89.9368L97.1258 163.121L103.558 132.744H110.639ZM123.997 142.528C128.285 142.528 131.33 143.374 133.132 145.068C134.933 146.762 135.834 149.176 135.834 152.311V170.148H128.916V153.068C128.916 151.266 128.519 149.969 127.726 149.176C126.97 148.383 125.673 147.987 123.835 147.987C122.574 147.987 121.276 148.131 119.943 148.419V170.148H113.024V144.257C114.79 143.717 116.61 143.302 118.484 143.014C120.393 142.69 122.231 142.528 123.997 142.528ZM144.777 138.69C143.623 138.69 142.651 138.311 141.858 137.555C141.101 136.798 140.723 135.825 140.723 134.636C140.723 133.447 141.101 132.474 141.858 131.717C142.651 130.96 143.623 130.582 144.777 130.582C145.497 130.582 146.164 130.762 146.777 131.123C147.389 131.447 147.858 131.915 148.182 132.528C148.542 133.141 148.722 133.843 148.722 134.636C148.722 135.393 148.542 136.077 148.182 136.69C147.858 137.303 147.389 137.789 146.777 138.149C146.164 138.51 145.497 138.69 144.777 138.69ZM141.317 143.176H148.236V170.148H141.317V143.176ZM165.283 170.797C162.616 170.797 160.31 170.238 158.364 169.121C156.454 168.004 154.995 166.383 153.986 164.257C152.977 162.13 152.472 159.608 152.472 156.689C152.472 153.734 152.959 151.194 153.932 149.068C154.941 146.942 156.4 145.32 158.31 144.203C160.256 143.086 162.58 142.528 165.283 142.528C167.985 142.528 170.291 143.086 172.201 144.203C174.147 145.32 175.625 146.942 176.634 149.068C177.643 151.194 178.147 153.734 178.147 156.689C178.147 159.608 177.643 162.13 176.634 164.257C175.625 166.383 174.147 168.004 172.201 169.121C170.291 170.238 167.985 170.797 165.283 170.797ZM165.283 165.229C167.265 165.229 168.724 164.527 169.661 163.121C170.598 161.716 171.066 159.572 171.066 156.689C171.066 153.77 170.598 151.608 169.661 150.203C168.724 148.798 167.265 148.095 165.283 148.095C163.337 148.095 161.895 148.798 160.958 150.203C160.022 151.608 159.553 153.77 159.553 156.689C159.553 159.572 160.022 161.716 160.958 163.121C161.895 164.527 163.337 165.229 165.283 165.229ZM190.006 170.797C188.276 170.797 186.654 170.635 185.141 170.31C183.663 169.986 182.348 169.536 181.195 168.959C181.231 167.013 181.519 165.229 182.06 163.608C183.249 164.221 184.474 164.689 185.735 165.013C186.997 165.302 188.24 165.446 189.465 165.446C190.942 165.446 192.042 165.229 192.762 164.797C193.483 164.365 193.843 163.698 193.843 162.797C193.843 162.076 193.591 161.482 193.087 161.013C192.582 160.545 191.753 160.095 190.6 159.662L188.384 158.797C186.042 157.896 184.258 156.815 183.033 155.554C181.844 154.293 181.249 152.617 181.249 150.527C181.249 148.041 182.114 146.095 183.844 144.69C185.609 143.248 188.24 142.528 191.735 142.528C193.213 142.528 194.636 142.636 196.005 142.852C197.411 143.032 198.654 143.32 199.735 143.717C199.663 145.41 199.429 147.176 199.032 149.014C197.879 148.653 196.762 148.383 195.681 148.203C194.636 147.987 193.501 147.879 192.276 147.879C190.726 147.879 189.609 148.095 188.925 148.527C188.276 148.924 187.952 149.536 187.952 150.365C187.952 151.05 188.222 151.644 188.762 152.149C189.339 152.653 190.258 153.14 191.519 153.608L193.897 154.527C196.312 155.464 198.059 156.527 199.14 157.716C200.257 158.905 200.816 160.473 200.816 162.419C200.816 164.04 200.42 165.482 199.627 166.743C198.834 168.004 197.627 168.995 196.005 169.716C194.384 170.437 192.384 170.797 190.006 170.797ZM227.461 154.581C227.461 155.374 227.425 156.167 227.353 156.959C227.317 157.752 227.263 158.455 227.191 159.068H210.488C210.813 161.374 211.587 163.013 212.813 163.986C214.038 164.923 215.858 165.392 218.272 165.392C221.155 165.392 223.965 164.725 226.704 163.392C226.524 165.554 226.236 167.446 225.839 169.067C223.533 170.22 220.722 170.797 217.407 170.797C212.687 170.797 209.191 169.554 206.921 167.067C204.651 164.545 203.516 160.995 203.516 156.419C203.516 153.68 203.966 151.284 204.867 149.23C205.768 147.14 207.137 145.5 208.975 144.311C210.849 143.122 213.155 142.528 215.894 142.528C218.488 142.528 220.65 143.05 222.38 144.095C224.11 145.14 225.389 146.563 226.218 148.365C227.046 150.167 227.461 152.239 227.461 154.581ZM215.731 147.879C214.182 147.879 212.957 148.401 212.056 149.446C211.191 150.491 210.651 152.041 210.434 154.095H220.704C220.668 152.041 220.236 150.491 219.407 149.446C218.614 148.401 217.389 147.879 215.731 147.879ZM248.371 170.148L239.291 155.933V170.148H232.372V132.744C234.642 132.095 236.948 131.771 239.291 131.771V155.23L247.831 143.176H255.614L246.263 155.392L256.533 170.148H248.371ZM263.081 157.824C263.009 157.104 262.973 156.563 262.973 156.203C262.973 154.437 263.315 152.96 264 151.77C264.685 150.581 265.766 149.41 267.243 148.257C268.576 147.176 269.531 146.203 270.108 145.338C270.685 144.437 270.973 143.392 270.973 142.203C270.973 140.834 270.504 139.771 269.567 139.014C268.667 138.221 267.207 137.825 265.189 137.825C264.036 137.825 262.829 137.969 261.568 138.257C260.343 138.51 259.225 138.87 258.216 139.338C258.216 137.321 258.379 135.321 258.703 133.339C260.901 132.33 263.46 131.825 266.378 131.825C268.937 131.825 271.099 132.24 272.865 133.068C274.63 133.861 275.946 134.996 276.81 136.474C277.711 137.915 278.162 139.645 278.162 141.663C278.162 143.14 277.909 144.455 277.405 145.609C276.901 146.726 276.198 147.735 275.297 148.635C274.396 149.536 273.225 150.491 271.784 151.5C270.775 152.185 270 152.779 269.459 153.284C268.919 153.752 268.522 154.275 268.27 154.851C268.054 155.428 267.946 156.131 267.946 156.959V157.824H263.081ZM265.73 170.635C264.973 170.635 264.288 170.455 263.676 170.094C263.063 169.734 262.577 169.265 262.216 168.689C261.892 168.076 261.73 167.41 261.73 166.689C261.73 165.968 261.892 165.302 262.216 164.689C262.577 164.076 263.063 163.59 263.676 163.23C264.288 162.869 264.973 162.689 265.73 162.689C266.486 162.689 267.153 162.869 267.73 163.23C268.342 163.59 268.811 164.076 269.135 164.689C269.495 165.302 269.676 165.968 269.676 166.689C269.676 167.41 269.495 168.076 269.135 168.689C268.811 169.265 268.342 169.734 267.73 170.094C267.153 170.455 266.486 170.635 265.73 170.635Z" fill="white"/>
</g>
<defs>
<clipPath id="clip0_1936_7336">
<rect width="318" height="290.445" fill="white"/>
</clipPath>
</defs>
</svg>
