<svg width="98" height="89" viewBox="0 0 98 89" fill="none" xmlns="http://www.w3.org/2000/svg">
<path d="M67.7422 67.4471L87.3251 58.9078" stroke="#EC0000" stroke-width="3" stroke-linecap="round" stroke-linejoin="round"/>
<path d="M87.3125 58.9075C94.8012 54.815 98.3073 60.8255 94.2636 64.075" stroke="#EC0000" stroke-width="3" stroke-linecap="round" stroke-linejoin="round"/>
<path d="M50.6016 61.5217L60.6312 63.8795" stroke="#EC0000" stroke-width="3" stroke-linecap="round" stroke-linejoin="round"/>
<path d="M60.625 63.8798C69.0543 65.1014 68.3091 72.0281 63.0683 72.1747" stroke="#EC0000" stroke-width="3" stroke-linecap="round" stroke-linejoin="round"/>
<path d="M38.0078 68.0212C40.4253 69.4344 43.0339 70.4918 45.753 71.1609C48.5331 71.9538 51.4139 72.3365 54.3045 72.297L63.0392 72.1748" stroke="#EC0000" stroke-width="3" stroke-linecap="round" stroke-linejoin="round"/>
<path d="M18.9609 75.1069C25.4234 79.6636 34.6346 85.5641 42.2454 86.3215C50.6136 87.1522 61.9382 83.3651 75.5717 78.4908L94.2628 64.0754" stroke="#EC0000" stroke-width="3" stroke-linecap="round" stroke-linejoin="round"/>
<path d="M50.5892 61.522C47.2663 60.8012 34.7812 43.4294 18.9609 53.398" stroke="#EC0000" stroke-width="3" stroke-linecap="round" stroke-linejoin="round"/>
<path d="M4.01912 49.7086H15.7102C15.9733 49.7086 16.2338 49.7604 16.4769 49.8611C16.72 49.9618 16.9409 50.1094 17.1269 50.2954C17.3129 50.4815 17.4605 50.7023 17.5612 50.9454C17.6619 51.1885 17.7137 51.449 17.7137 51.7121V74.6423C17.7137 74.9054 17.6619 75.1659 17.5612 75.409C17.4605 75.6521 17.3129 75.8729 17.1269 76.059C16.9409 76.245 16.72 76.3926 16.4769 76.4933C16.2338 76.594 15.9733 76.6458 15.7102 76.6458H3.81144C3.33516 76.6458 2.87839 76.4566 2.54161 76.1198C2.20483 75.783 2.01563 75.3263 2.01562 74.85V51.7121C2.01562 51.1808 2.22671 50.6712 2.60243 50.2954C2.97816 49.9197 3.48776 49.7086 4.01912 49.7086Z" stroke="#EC0000" stroke-width="3" stroke-linecap="round" stroke-linejoin="round"/>
<path d="M9.86956 72.1622C11.2257 72.1622 12.3251 71.0629 12.3251 69.7067C12.3251 68.3506 11.2257 67.2512 9.86956 67.2512C8.51343 67.2512 7.41406 68.3506 7.41406 69.7067C7.41406 71.0629 8.51343 72.1622 9.86956 72.1622Z" fill="#EC0000"/>
<path d="M32.1623 48.8657C29.7191 29.3194 57.0594 13.4381 57.0594 13.4381H64.2548" stroke="#EC0000" stroke-width="3" stroke-linecap="round" stroke-linejoin="round"/>
<path d="M56.9705 12.3508L52.1328 2.28451L60.6599 4.59341L69.1869 2.01575L64.3492 12.3508" stroke="#EC0000" stroke-width="3" stroke-linecap="round" stroke-linejoin="round"/>
<path d="M85.2735 59.4448C88.0226 55.6996 89.5345 51.1898 89.5982 46.5443C90.49 29.5635 64.75 13.4501 64.75 13.4501" stroke="#EC0000" stroke-width="3" stroke-linecap="round" stroke-linejoin="round"/>
<path d="M76 38.1706C76 37.6348 75.7872 37.121 75.4083 36.7422C75.0295 36.3633 74.5157 36.1505 73.98 36.1505H47.02C46.4843 36.1505 45.9705 36.3633 45.5916 36.7422C45.2128 37.121 45 37.6348 45 38.1706C45 38.7063 45.2128 39.2201 45.5916 39.5989C45.9705 39.9778 46.4843 40.1906 47.02 40.1906H73.98C74.5157 40.1906 75.0295 39.9778 75.4083 39.5989C75.7872 39.2201 76 38.7063 76 38.1706Z" stroke="#EC0000" stroke-width="2.14138" stroke-linecap="round" stroke-linejoin="round"/>
<path d="M46.1875 40.1976H75.2603L68.6077 53.1101C68.4235 53.4664 68.1451 53.7653 67.8027 53.9742C67.4604 54.1831 67.0673 54.2941 66.6662 54.295H54.7958C54.3936 54.2998 53.9981 54.1912 53.6547 53.9817C53.3114 53.7721 53.034 53.4701 52.8543 53.1101C51.0984 49.7339 46.1875 40.1976 46.1875 40.1976Z" stroke="#EC0000" stroke-width="2.14138" stroke-linecap="round" stroke-linejoin="round"/>
<path d="M52.8828 40.1976H68.572L64.6533 54.3307H56.8015L52.8828 40.1976Z" stroke="#EC0000" stroke-width="2.14138" stroke-linecap="round" stroke-linejoin="round"/>
<path d="M60.7266 40.1976V54.3236" stroke="#EC0000" stroke-width="2.14138" stroke-linecap="round" stroke-linejoin="round"/>
<path d="M49.875 47.2642H71.2816" stroke="#EC0000" stroke-width="2.14138" stroke-linecap="round" stroke-linejoin="round"/>
<path d="M51.3359 36.1575L57.5317 26.0002" stroke="#EC0000" stroke-width="2.14138" stroke-linecap="round" stroke-linejoin="round"/>
<path d="M71.281 36.1575L65.0781 26.0002" stroke="#EC0000" stroke-width="2.14138" stroke-linecap="round" stroke-linejoin="round"/>
</svg>
