<svg width="359" height="85" viewBox="0 0 359 85" fill="none" xmlns="http://www.w3.org/2000/svg">
<g clip-path="url(#clip0_705_3540)">
<path d="M22.1487 27.4585C22.1057 26.3863 21.8053 25.3312 21.2559 24.3704L16.4142 15.9125C16.045 15.2691 15.7875 14.5743 15.6501 13.8623L15.4441 14.214C14.2422 16.3071 14.2422 18.889 15.4441 20.9821L19.3157 27.7502C20.5176 29.8432 20.5176 32.4252 19.3157 34.5183L19.1097 34.87C18.9638 34.158 18.7148 33.4718 18.3457 32.8284L14.8002 26.635L12.5339 22.6806C12.1648 22.0372 11.9072 21.3424 11.7699 20.6304L11.5638 20.9821C10.3706 23.0666 10.362 25.64 11.5553 27.7245L15.4355 34.5183C16.6288 36.6113 16.6288 39.1933 15.4355 41.2864L15.2295 41.6381C15.0921 40.9261 14.8346 40.2398 14.4654 39.5879L9.62372 31.1299C8.97987 29.9976 8.67941 28.7195 8.73092 27.45C3.55439 28.8139 -0.0253906 31.7132 -0.0253906 35.0758C-0.0253906 39.7509 6.89381 43.5338 15.4269 43.5338C23.96 43.5338 30.8792 39.7423 30.8792 35.0758C30.8792 31.7132 27.308 28.8139 22.1229 27.45L22.1487 27.4585ZM167.77 27.184C167.77 28.1534 167.658 29.32 167.478 29.9376C166.722 29.8518 165.967 29.8175 165.074 29.8175C164.293 29.8175 163.503 29.8775 162.722 29.9891V42.5302H159.528V27.8789C160.893 27.4071 163.185 27.0554 164.988 27.0554C165.975 27.0554 167.074 27.0811 167.77 27.1755V27.184ZM146.351 33.5661H153.545C153.545 31.1643 152.266 29.7575 150.059 29.7575C147.853 29.7575 146.608 31.0785 146.342 33.5661H146.351ZM156.584 36.2596H146.402C146.806 38.8674 148.317 40.1283 151.158 40.1283C152.901 40.1283 154.669 39.7509 156.266 39.0132C156.155 39.8624 155.974 40.9776 155.777 41.9469C154.326 42.6245 152.789 42.8819 151.072 42.8819C145.733 42.8819 143.149 39.8967 143.149 34.8786C143.149 30.5123 145.149 27.0554 150.231 27.0554C154.79 27.0554 156.764 30.0748 156.764 33.7634C156.764 34.6727 156.704 35.4018 156.592 36.251L156.584 36.2596ZM137.38 39.1247V30.1006C136.539 29.9204 135.672 29.8089 134.822 29.8089C131.663 29.8089 130.152 31.799 130.152 35.1445C130.152 38.1296 131.345 40.2398 134.186 40.2398C135.466 40.2398 136.504 39.8024 137.38 39.1247ZM140.539 22.0115V42.5216H137.612L137.44 40.643C136.625 42.0241 135.38 42.8733 133.294 42.8733C129.465 42.8733 126.907 40.0597 126.907 35.1359C126.907 30.2121 129.637 27.0468 135.002 27.0468C135.843 27.0468 136.625 27.1326 137.38 27.2784V22.4404C138.367 22.0887 139.5 22.0029 140.539 22.0029V22.0115ZM124.349 32.6654V42.513H121.155V33.223C121.155 30.9069 120.4 29.7918 117.206 29.7918C116.451 29.7918 115.549 29.8775 114.682 30.0234V42.5045H111.489V27.8531C113.523 27.3556 115.755 27.0296 117.292 27.0296C122.632 27.0296 124.34 29.1141 124.34 32.6568L124.349 32.6654ZM104.81 39.159V29.9547C104.14 29.8347 103.419 29.7832 102.518 29.7832C99.2128 29.7832 97.6761 31.8333 97.6761 35.1187C97.6761 38.1039 98.8694 40.2141 101.711 40.2141C102.956 40.2141 103.977 39.8024 104.819 39.159H104.81ZM108.012 27.8445V42.4959H105.085L104.913 40.7374C104.097 42.0241 102.853 42.8476 100.818 42.8476C96.9893 42.8476 94.4311 40.034 94.4311 35.1102C94.4311 30.1864 97.161 27.0211 102.526 27.0211C104.612 27.0211 106.329 27.2527 108.012 27.8445ZM90.8857 40.094C91.8128 40.094 92.6885 39.9225 93.3838 39.6565C93.298 40.5315 93.1778 41.5351 93.0061 42.3844C92.139 42.7361 91.2033 42.8562 90.3105 42.8562C87.2029 42.8562 85.2284 41.4236 85.2284 37.8466V22.509C86.2157 22.183 87.4347 22.0372 88.4219 22.0372V27.5786H93.4697C93.4096 28.5737 93.3237 29.483 93.1778 30.3322H88.4219V37.512C88.4219 39.4163 89.349 40.1455 90.8857 40.1455V40.094ZM82.035 32.6997V42.5473H78.8415V33.2573C78.8415 30.9412 78.086 29.8261 74.8925 29.8261C74.1371 29.8261 73.2357 29.9119 72.3687 30.0577V42.5388H69.1752V27.8874C71.2097 27.3899 73.4417 27.0639 74.9784 27.0639C80.318 27.0639 82.0264 29.1484 82.0264 32.6912L82.035 32.6997ZM62.4964 39.1933V29.9891C61.8268 29.869 61.1057 29.8175 60.2043 29.8175C56.8992 29.8175 55.354 31.8677 55.354 35.1531C55.354 38.1382 56.5472 40.2484 59.3887 40.2484C60.6335 40.2484 61.6551 39.8367 62.4964 39.1933ZM65.6898 27.8789V42.5302H62.7625L62.5908 40.7717C61.7753 42.0584 60.5305 42.8819 58.4959 42.8819C54.6672 42.8819 52.109 40.0683 52.109 35.1445C52.109 30.2207 54.8389 27.0554 60.2043 27.0554C62.2903 27.0554 64.0073 27.287 65.6898 27.8789ZM36.6996 41.8868C36.7597 40.6859 36.9314 39.8624 37.249 38.9274C38.8715 39.6908 40.9661 40.0683 42.5629 40.0683C45.2585 40.0683 46.7693 39.1933 46.7693 37.4606C46.7693 35.7278 45.6705 34.9729 42.9406 33.772L41.4641 33.1286C38.7341 31.9277 36.8799 30.3751 36.8799 27.2698C36.8799 23.933 39.172 21.7884 43.8763 21.7884C45.7649 21.7884 47.5334 22.0544 49.1902 22.6377C49.1044 23.8129 48.8983 24.7221 48.6065 25.5714C47.0355 24.9881 45.1812 24.7221 43.8506 24.7221C41.3267 24.7221 40.1678 25.7172 40.1678 27.2698C40.1678 28.8224 41.3009 29.6717 43.3269 30.5552L44.8979 31.2243C48.5807 32.8027 50.1259 34.4754 50.1259 37.3147C50.1259 40.6859 47.6021 43.002 42.6659 43.002C40.288 43.002 38.3393 42.6503 36.7168 41.8868" fill="#EC0000"/>
<path d="M36.6219 57.2591C36.6219 52.8157 39.0685 50.165 43.4295 50.165C44.4768 50.165 45.4898 50.2851 46.3997 50.6197C46.3568 51.366 46.228 52.0093 46.0306 52.5583C45.2322 52.2838 44.3995 52.1294 43.4295 52.1294C40.7682 52.1294 38.871 53.7936 38.871 57.1647C38.871 60.5359 40.8112 62.3974 43.3951 62.3974C44.3223 62.3974 45.4125 62.1829 46.1851 61.7883C46.1422 62.5346 46.0306 63.178 45.8503 63.9242C45.052 64.1987 44.2622 64.3531 43.0947 64.3531C38.9225 64.3531 36.6133 61.4709 36.6133 57.2591" fill="#EC0000"/>
<path d="M54.7621 59.0174C54.7621 56.6241 53.6719 55.5347 51.9292 55.5347C49.9461 55.5347 49.0362 56.8643 49.0362 58.9402C49.0362 61.3506 50.1264 62.4229 51.9292 62.4229C53.835 62.4229 54.7621 61.1105 54.7621 59.0174ZM46.8643 59.1118C46.8643 55.6805 48.8387 53.6904 51.9893 53.6904C55.1398 53.6904 56.934 55.9465 56.934 58.8373C56.934 62.2685 54.9767 64.2672 51.7918 64.2672C48.6069 64.2672 46.8643 62.0197 46.8643 59.1118Z" fill="#EC0000"/>
<path d="M67.0637 57.4562V64.0356H64.9261V57.8251C64.9261 56.281 64.4196 55.5347 62.2907 55.5347C61.7842 55.5347 61.1832 55.5948 60.5995 55.6891V64.0356H58.4619V54.2394C59.8183 53.9049 61.312 53.6904 62.3422 53.6904C65.9134 53.6904 67.0551 55.0801 67.0551 57.4476" fill="#EC0000"/>
<path d="M68.5918 63.6069C68.6261 62.8005 68.7291 62.2344 68.8837 61.7883C69.7765 62.2344 71.0212 62.4746 71.9484 62.4746C73.1674 62.4746 73.8456 62.14 73.8456 61.3165C73.8456 60.596 73.2618 60.2957 72.3347 60.0041L71.3475 59.6953C69.3902 59.0691 68.7291 58.0311 68.7291 56.5986C68.7291 54.7972 69.9911 53.6992 72.4377 53.6992C73.6567 53.6992 74.704 53.8365 75.6226 54.171C75.5797 54.7372 75.5024 55.269 75.3136 55.8952C74.4036 55.6036 73.5108 55.4835 72.4978 55.4835C71.1414 55.4835 70.7895 55.9124 70.7895 56.5214C70.7895 57.2505 71.2788 57.6022 72.3004 57.9282L73.3305 58.2627C75.1762 58.8461 75.966 59.7124 75.966 61.2565C75.966 63.0407 74.5667 64.276 72.0085 64.276C70.5748 64.276 69.5018 64.0787 68.5918 63.6069Z" fill="#EC0000"/>
<path d="M85.8977 53.9307V64.0356H83.9146L83.7945 62.7575C83.1334 63.641 82.2063 64.2672 80.8843 64.2672C78.5321 64.2672 77.2959 63.0148 77.2959 60.51V53.9307H79.4335V60.0211C79.4335 61.6852 79.9915 62.4315 81.6226 62.4315C82.3952 62.4315 83.1592 62.1742 83.7601 61.6509V53.9307H85.8977Z" fill="#EC0000"/>
<path d="M103.067 57.4562V64.0356H100.93V57.765C100.93 56.2982 100.286 55.5347 98.5088 55.5347C97.8134 55.5347 97.0751 55.6891 96.4141 55.9636C96.5515 56.3925 96.6116 56.8815 96.6116 57.4562V64.0356H94.474V57.7479C94.474 56.2982 93.813 55.5347 91.9673 55.5347C91.3664 55.5347 90.7225 55.5948 90.1473 55.7148V64.0356H88.0098V54.2394C89.3661 53.9049 90.8599 53.6904 92.1819 53.6904C93.5039 53.6904 94.6028 53.922 95.341 54.4539C96.4484 53.9649 97.6074 53.6904 98.6976 53.6904C101.977 53.6904 103.067 55.0801 103.067 57.4476" fill="#EC0000"/>
<path d="M106.638 58.0391H111.445C111.445 56.435 110.595 55.4914 109.119 55.4914C107.642 55.4914 106.81 56.3749 106.638 58.0391ZM113.488 59.8405H106.681C106.956 61.5818 107.96 62.4225 109.866 62.4225C111.033 62.4225 112.209 62.1651 113.282 61.6762C113.205 62.2423 113.085 62.9886 112.956 63.632C111.986 64.078 110.956 64.2582 109.814 64.2582C106.243 64.2582 104.518 62.2595 104.518 58.9055C104.518 55.9889 105.857 53.6729 109.248 53.6729C112.295 53.6729 113.609 55.6887 113.609 58.1592C113.609 58.7682 113.566 59.2572 113.488 59.8233" fill="#EC0000"/>
<path d="M120.743 53.7676C120.743 54.411 120.665 55.2002 120.545 55.6119C120.039 55.5519 119.541 55.5347 118.931 55.5347C118.408 55.5347 117.884 55.5776 117.36 55.6548V64.0356H115.223V54.2394C116.133 53.9306 117.669 53.6904 118.871 53.6904C119.532 53.6904 120.27 53.7076 120.734 53.7676" fill="#EC0000"/>
<path d="M132.169 60.1577C132.169 58.768 131.122 58.1161 128.967 58.1161H127.087V62.1478H128.89C131.079 62.1478 132.169 61.6159 132.169 60.1491V60.1577ZM127.087 52.2144V56.2289H128.83C130.753 56.2289 131.585 55.5255 131.585 54.2302C131.585 53.0722 130.967 52.1372 128.461 52.1372C127.98 52.1372 127.551 52.1543 127.087 52.2144ZM134.384 60.0461C134.384 62.5767 132.813 64.0264 129.13 64.0264H124.924V50.5674C125.894 50.3872 127.216 50.25 128.435 50.25C132.101 50.25 133.809 51.6568 133.809 53.9729C133.809 55.1309 133.225 56.4434 131.929 57.0267C133.465 57.4213 134.393 58.5964 134.393 60.0461" fill="#EC0000"/>
<path d="M142.334 61.8053V55.6548C141.887 55.5776 141.406 55.5347 140.797 55.5347C138.582 55.5347 137.561 56.9072 137.561 59.0946C137.561 61.0933 138.359 62.5001 140.256 62.5001C141.089 62.5001 141.767 62.2256 142.334 61.7967V61.8053ZM144.471 54.2394V64.0356H142.514L142.394 62.8604C141.853 63.7268 141.02 64.2672 139.655 64.2672C137.097 64.2672 135.389 62.3886 135.389 59.0946C135.389 55.8006 137.209 53.6904 140.797 53.6904C142.196 53.6904 143.338 53.8448 144.463 54.2394" fill="#EC0000"/>
<path d="M155.176 57.4562V64.0356H153.038V57.8251C153.038 56.281 152.532 55.5347 150.403 55.5347C149.896 55.5347 149.296 55.5948 148.712 55.6891V64.0356H146.574V54.2394C147.931 53.9049 149.424 53.6904 150.454 53.6904C154.026 53.6904 155.167 55.0801 155.167 57.4476" fill="#EC0000"/>
<path d="M166.061 64.035H163.477L159.674 58.648V58.5107L163.383 53.93H165.907L162.069 58.5708L166.061 64.035ZM157.193 50.4817C157.914 50.2501 158.627 50.1729 159.331 50.1729V64.0436H157.193V50.4902V50.4817Z" fill="#EC0000"/>
<path d="M201.326 0H200.373V85H201.326V0Z" fill="#EC0000"/>
<path d="M267.051 63.8471L261.239 55.1919V63.8471H257.899V46.2793C258.329 46.1592 258.852 46.0562 259.479 45.9705C260.106 45.8847 260.689 45.8418 261.239 45.8418V54.6257L266.87 46.0734H270.622L264.656 54.8316L271.008 63.8471H267.051Z" fill="#EC0000"/>
<path d="M279.335 50.9452C279.335 51.4256 279.3 51.906 279.24 52.3863C279.18 52.8667 279.112 53.287 279.026 53.6473C278.408 53.5444 277.661 53.4929 276.785 53.4929C276.201 53.4929 275.643 53.5272 275.111 53.5958V63.8466H271.823V51.4427C272.562 51.254 273.343 51.0996 274.175 50.9709C275.008 50.8423 275.815 50.7822 276.605 50.7822C277.635 50.7822 278.545 50.8423 279.326 50.9624" fill="#EC0000"/>
<path d="M283.825 54.0078C283.404 54.5054 283.147 55.2431 283.044 56.221H287.928C287.911 55.2431 287.714 54.5054 287.328 54.0078C286.941 53.5103 286.357 53.2616 285.568 53.2616C284.829 53.2616 284.254 53.5103 283.834 54.0078H283.825ZM291.113 57.5763C291.088 57.9538 291.053 58.2883 291.019 58.58H283.078C283.233 59.6779 283.602 60.45 284.186 60.9046C284.769 61.3592 285.636 61.5823 286.778 61.5823C288.152 61.5823 289.482 61.2649 290.787 60.6301C290.701 61.6595 290.564 62.5602 290.375 63.3236C289.276 63.8726 287.937 64.1471 286.366 64.1471C284.117 64.1471 282.46 63.5552 281.378 62.3629C280.297 61.1705 279.756 59.4892 279.756 57.319C279.756 56.0151 279.97 54.8742 280.4 53.8878C280.829 52.9013 281.481 52.1292 282.366 51.5631C283.25 50.9969 284.34 50.7139 285.645 50.7139C286.881 50.7139 287.911 50.9626 288.727 51.4602C289.551 51.9577 290.16 52.6354 290.555 53.4932C290.95 54.351 291.148 55.3374 291.148 56.444C291.148 56.8215 291.139 57.1989 291.113 57.5763Z" fill="#EC0000"/>
<path d="M300.041 61.2903C300.393 61.1445 300.702 60.9472 300.977 60.6898V53.5271C300.496 53.4242 299.964 53.3727 299.38 53.3727C298.213 53.3727 297.389 53.7159 296.899 54.4021C296.41 55.0883 296.17 56.1177 296.17 57.4816C296.17 58.8455 296.393 59.9092 296.822 60.5526C297.251 61.1959 297.947 61.5133 298.891 61.5133C299.303 61.5133 299.681 61.4447 300.033 61.2989L300.041 61.2903ZM304.239 51.3912V63.8465H301.209L301.028 62.0966C300.393 63.4691 299.32 64.1554 297.818 64.1554C296.822 64.1554 295.955 63.9237 295.208 63.452C294.461 62.9802 293.877 62.2596 293.457 61.2817C293.036 60.3038 292.83 59.0771 292.83 57.6103C292.83 55.3972 293.345 53.6987 294.384 52.5149C295.423 51.3226 297.062 50.7307 299.311 50.7307C299.706 50.7307 300.264 50.7478 300.985 50.7822V46.0814C302.05 45.7726 303.14 45.6182 304.248 45.6182V51.374H304.273L304.248 51.3998L304.239 51.3912Z" fill="#EC0000"/>
<path d="M318.052 51.0225L313.425 65.0219C312.944 66.4801 312.266 67.6038 311.39 68.4016C310.515 69.1994 309.381 69.594 307.999 69.594C307.553 69.594 307.124 69.5425 306.712 69.4396C306.712 68.4445 306.772 67.561 306.892 66.7975C307.235 66.8661 307.51 66.9004 307.716 66.9004C308.403 66.9004 308.978 66.7289 309.45 66.3858C309.922 66.0426 310.309 65.4336 310.618 64.5586L305.553 51.0225H308.944L312.051 60.7071L314.824 51.0225H318.035H318.052Z" fill="#EC0000"/>
<path d="M322.936 61.0073C323.211 61.3247 323.64 61.4791 324.224 61.4791C324.499 61.4791 324.791 61.4362 325.1 61.359C325.409 61.2818 325.692 61.1874 325.95 61.0673C325.864 62.131 325.743 63.006 325.589 63.6922C324.988 64.001 324.241 64.1554 323.348 64.1554C322.009 64.1554 320.996 63.7952 320.292 63.0746C319.588 62.354 319.236 61.2646 319.236 59.8149V47.4883C320.249 47.1966 321.34 47.0508 322.524 47.0508V51.031H326.07C326.018 51.9231 325.924 52.7895 325.786 53.6302H322.524V59.489C322.524 60.1924 322.662 60.6985 322.936 61.0159" fill="#EC0000"/>
<path d="M332.474 45.3438C332.972 45.1894 333.573 45.0693 334.285 44.9749C334.998 44.8806 335.625 44.8291 336.174 44.8291C336.037 45.5668 335.745 46.2531 335.298 46.8964C334.852 47.5398 334.311 48.063 333.667 48.4662C333.023 48.8694 332.337 49.0924 331.598 49.1439H331.521L332.474 45.3438ZM335.17 60.5012C335.616 59.8321 335.839 58.8113 335.839 57.4474C335.839 56.0835 335.616 55.0284 335.17 54.3679C334.723 53.6988 334.028 53.3643 333.084 53.3643C332.139 53.3643 331.47 53.6988 331.023 54.3679C330.577 55.037 330.354 56.0664 330.354 57.4474C330.354 58.8285 330.577 59.8321 331.023 60.5012C331.47 61.1703 332.156 61.5049 333.084 61.5049C334.011 61.5049 334.723 61.1703 335.17 60.5012ZM329.813 63.3491C328.894 62.8173 328.199 62.0453 327.718 61.0416C327.237 60.0294 326.997 58.8285 326.997 57.4474C326.997 56.0664 327.229 54.8311 327.701 53.8275C328.173 52.8153 328.869 52.0433 329.778 51.5114C330.697 50.9796 331.796 50.7137 333.084 50.7137C334.371 50.7137 335.47 50.9796 336.389 51.5114C337.307 52.0433 338.003 52.8153 338.483 53.8275C338.964 54.8397 339.204 56.0492 339.204 57.4474C339.204 58.8457 338.964 60.0294 338.483 61.0416C338.003 62.0539 337.307 62.8259 336.389 63.3491C335.47 63.881 334.371 64.1469 333.084 64.1469C331.796 64.1469 330.723 63.881 329.804 63.3491" fill="#EC0000"/>
<path d="M355.789 51.0225L353.626 60.3468L350.956 51.0225H347.745L345.273 60.2439L342.912 51.0225H339.461L343.659 63.8467H346.689L349.307 55.1571L351.857 63.8467H355.068L359 51.0225H355.789Z" fill="#EC0000"/>
<path d="M277.884 44.906C277.884 45.678 278.039 46.2699 278.348 46.6645C278.665 47.0677 279.12 47.265 279.738 47.265C280.357 47.265 280.812 47.0677 281.121 46.6731C281.43 46.2785 281.584 45.6866 281.584 44.906C281.584 44.1254 281.43 43.5507 281.121 43.1561C280.812 42.7615 280.357 42.5556 279.747 42.5556C279.138 42.5556 278.665 42.7529 278.356 43.1561C278.039 43.5507 277.884 44.1426 277.884 44.906ZM282.683 44.906C282.683 45.9268 282.425 46.7246 281.919 47.2907C281.404 47.8569 280.683 48.1399 279.747 48.1399C278.811 48.1399 278.073 47.8569 277.558 47.2993C277.051 46.7331 276.794 45.9354 276.794 44.8974C276.794 43.8595 277.051 43.0617 277.558 42.5127C278.073 41.9552 278.803 41.6807 279.747 41.6807C280.691 41.6807 281.404 41.9637 281.91 42.5299C282.417 43.096 282.674 43.8852 282.674 44.9146" fill="#3A3A3A"/>
<path d="M287.593 44.8892C287.593 43.3881 286.889 42.6332 285.481 42.6332H284.589V47.1881H285.318C286.829 47.1881 287.585 46.4161 287.585 44.8892H287.593ZM288.666 44.8549C288.666 45.8929 288.374 46.682 287.799 47.231C287.224 47.78 286.391 48.0545 285.31 48.0545H283.55V41.7754H285.49C286.486 41.7754 287.267 42.0413 287.825 42.5817C288.383 43.1221 288.658 43.877 288.658 44.8549" fill="#3A3A3A"/>
<path d="M250.267 36.5685C250.937 36.071 251.28 35.3161 251.28 34.2953C251.28 33.2745 250.946 32.5368 250.285 32.0221C249.624 31.5075 248.653 31.2587 247.392 31.2587H244.524V37.3062H247.495C248.679 37.3062 249.598 37.0575 250.276 36.5685H250.267ZM244.533 23.5127V29.3286H247.228C248.259 29.3286 249.083 29.0884 249.709 28.5995C250.336 28.1191 250.645 27.3728 250.645 26.3692C250.645 25.3656 250.319 24.6622 249.658 24.1475C248.997 23.6414 248.01 23.384 246.679 23.384C246.027 23.384 245.314 23.4269 244.533 23.5127ZM252.74 31.7476C253.255 32.5111 253.512 33.3861 253.512 34.3725C253.512 35.359 253.281 36.2597 252.826 36.9803C252.371 37.7008 251.701 38.2498 250.834 38.6358C249.958 39.0218 248.911 39.2106 247.683 39.2106H242.344V21.8657C242.945 21.7456 243.623 21.6598 244.387 21.5912C245.151 21.5226 245.881 21.4883 246.585 21.4883C248.679 21.4883 250.25 21.9 251.298 22.7149C252.345 23.5299 252.868 24.6707 252.868 26.129C252.868 27.0297 252.654 27.8275 252.216 28.5137C251.787 29.2 251.177 29.7318 250.396 30.1178C251.443 30.4524 252.225 31.0014 252.74 31.7562" fill="#EC0000"/>
<path d="M264.398 36.4653V28.239C263.668 28.0674 262.887 27.9816 262.072 27.9816C260.629 27.9816 259.591 28.402 258.964 29.2512C258.337 30.1004 258.02 31.2842 258.02 32.8282C258.02 34.4666 258.32 35.6847 258.913 36.4825C259.505 37.2803 260.372 37.6748 261.505 37.6748C262.638 37.6748 263.608 37.2717 264.407 36.4739L264.398 36.4653ZM264.613 26.3518C265.351 26.4719 266.072 26.6435 266.759 26.8665V39.1846H264.596L264.458 37.4947C263.651 38.8243 262.467 39.4934 260.896 39.4934C259.325 39.4934 257.96 38.9444 257.015 37.8378C256.071 36.7398 255.607 35.0843 255.607 32.8797C255.607 30.6751 256.14 29.0968 257.213 27.9216C258.286 26.755 259.917 26.1631 262.132 26.1631C263.042 26.1631 263.874 26.2231 264.613 26.3432" fill="#EC0000"/>
<path d="M279.103 27.459C279.961 28.2311 280.382 29.329 280.382 30.7702V39.1852H278.055V31.0532C278.055 30.3584 277.952 29.8008 277.746 29.3634C277.54 28.9345 277.197 28.6085 276.716 28.4026C276.235 28.1882 275.6 28.0852 274.81 28.0852C274.021 28.0852 273.102 28.1967 272.166 28.4112V39.1852H269.84V27.073C271.66 26.5669 273.334 26.3096 274.862 26.3096C276.828 26.3096 278.236 26.6956 279.094 27.459" fill="#EC0000"/>
<path d="M293.396 39.1843H290.813L285.808 32.6564V32.5106L290.469 26.7805H292.933L288.126 32.5363L293.396 39.1929V39.1843ZM283.516 21.8738C284.142 21.6594 284.846 21.5479 285.636 21.5479V39.1843H283.516V21.8738Z" fill="#EC0000"/>
</g>
<defs>
<clipPath id="clip0_705_3540">
<rect width="359" height="85" fill="white"/>
</clipPath>
</defs>
</svg>
