<svg width="94" height="94" viewBox="0 0 94 94" fill="none" xmlns="http://www.w3.org/2000/svg">
<circle cx="47" cy="47" r="45.5" stroke="#EC0000" stroke-width="3"/>
<g clip-path="url(#clip0_1964_7428)">
<path d="M52.2683 37.0425V23.0821C52.2683 21.8087 51.7628 20.5873 50.8629 19.6864C49.963 18.7854 48.7423 18.2786 47.4689 18.2771H32.0785C30.8042 18.2771 29.582 18.7833 28.6809 19.6844C27.7798 20.5855 27.2735 21.8077 27.2735 23.0821V56.4841C27.2695 57.1087 27.3941 57.7275 27.6393 58.3019C27.883 58.8771 28.2396 59.3977 28.6879 59.8327C29.1363 60.2677 29.6674 60.6084 30.2497 60.8346C30.8321 61.061 31.4539 61.1684 32.0785 61.1505H34.8496L40.1755 70.3947C40.3027 70.6195 40.3695 70.8735 40.3694 71.1318V75.1609C40.3723 75.4231 40.4778 75.6737 40.6632 75.8591C40.8486 76.0446 41.0993 76.15 41.3615 76.1529H62.0611C63.3168 76.1514 64.5207 75.6515 65.4081 74.7631C66.2955 73.8746 66.794 72.6702 66.794 71.4144V57.7588C66.8107 46.3587 62.0334 39.5254 52.2683 37.0425ZM37.8921 46.8575L44.8918 58.5291V59.1665H32.0785C31.7133 59.1779 31.3496 59.1157 31.0089 58.9836C30.6667 58.8559 30.3551 58.6576 30.0945 58.4016C29.8294 58.1514 29.6181 57.8497 29.4738 57.5149C29.3297 57.1783 29.2525 56.8169 29.2465 56.4509V23.0821C29.2475 22.3313 29.5465 21.6117 30.0778 21.0814C30.3379 20.8145 30.6491 20.6029 30.9929 20.4591C31.3367 20.3153 31.7059 20.2423 32.0785 20.2445H47.491C48.2417 20.2489 48.9603 20.5494 49.4906 21.0808C50.021 21.6121 50.3201 22.3314 50.323 23.0821V45.9874L47.3525 43.0169C46.4429 42.1177 45.3165 41.4688 44.0824 41.1328C42.8483 40.7969 41.5483 40.7853 40.3085 41.0993C39.4236 41.3237 38.6462 41.8529 38.113 42.5939C37.5798 43.3349 37.3249 44.2402 37.3933 45.1506C37.4421 45.7551 37.6319 46.3397 37.9476 46.8575H37.8921ZM64.8488 71.4033C64.8488 72.1383 64.5568 72.8431 64.0371 73.3628C63.5175 73.8824 62.8127 74.1744 62.0777 74.1744H42.348V71.1262C42.352 70.5198 42.1952 69.9232 41.8935 69.3971L37.1384 61.1671H45.3185C45.8861 63.2567 46.9816 65.1652 48.4997 66.7092C48.5911 66.8022 48.7004 66.8758 48.8211 66.9254C48.9397 66.978 49.0682 67.0044 49.198 67.0029C49.396 67.0043 49.5896 66.9443 49.7522 66.8311C49.8719 66.7494 49.9722 66.6424 50.0461 66.5178C50.12 66.3931 50.1657 66.2538 50.1799 66.1096C50.1942 65.9653 50.1767 65.8197 50.1287 65.683C50.0806 65.5463 50.0032 65.4217 49.9018 65.3182C48.7255 64.1109 47.8469 62.6459 47.3358 61.0397C47.4904 60.94 47.6149 60.8001 47.6961 60.6351C47.7752 60.4618 47.8058 60.2703 47.7847 60.0809C47.7618 59.8984 47.689 59.7258 47.5741 59.5821C47.4583 59.4416 47.3072 59.3345 47.1363 59.2718C47.0756 59.2492 47.0123 59.2343 46.9479 59.2274C46.9101 58.9185 46.8916 58.6076 46.8925 58.2963C46.8911 58.1173 46.8434 57.9416 46.7539 57.7865L39.5936 45.86C39.4377 45.6046 39.3446 45.3159 39.322 45.0176C39.3003 44.7212 39.3476 44.4239 39.4601 44.1489C39.5726 43.8739 39.7472 43.6287 39.9704 43.4325C40.1926 43.2347 40.4585 43.0922 40.7463 43.0169C42.02 42.7043 43.3631 42.8536 44.5371 43.4381C45.0276 43.6869 45.4779 44.0083 45.8727 44.3913L50.6611 49.1852L55.9094 54.4391C56.0942 54.6166 56.3404 54.7157 56.5966 54.7157C56.8528 54.7157 57.0991 54.6166 57.2838 54.4391C57.4597 54.2546 57.5578 54.0095 57.5578 53.7546C57.5578 53.4998 57.4597 53.2547 57.2838 53.0702L52.1408 47.9161C52.1519 47.8277 52.1519 47.7384 52.1408 47.65V39.0266C60.7588 41.321 64.7102 47.3397 64.7102 57.7588L64.8488 71.4033Z" fill="#EC0000" stroke="#EC0000" stroke-miterlimit="10"/>
<path d="M34.7936 23.0932L34.6051 23.1541L34.4389 23.2373L34.2892 23.3647C34.1976 23.4559 34.1248 23.5643 34.0752 23.6836C34.0255 23.803 34 23.931 34 24.0603C34 24.1895 34.0255 24.3175 34.0752 24.4369C34.1248 24.5563 34.1976 24.6646 34.2892 24.7558C34.3797 24.8475 34.487 24.9208 34.6051 24.9719C34.7268 25.0203 34.8566 25.0447 34.9875 25.044C35.1166 25.0447 35.2447 25.0203 35.3644 24.9719C35.4826 24.9208 35.5898 24.8475 35.6803 24.7558C35.7719 24.6646 35.8447 24.5563 35.8943 24.4369C35.944 24.3175 35.9695 24.1895 35.9695 24.0603C35.9695 23.931 35.944 23.803 35.8943 23.6836C35.8447 23.5643 35.7719 23.4559 35.6803 23.3647C35.5668 23.2496 35.4255 23.1656 35.2702 23.1209C35.1165 23.0701 34.9521 23.0606 34.7936 23.0932Z" fill="#EC0000" stroke="#EC0000" stroke-miterlimit="10"/>
<path d="M38.7785 25.0438H44.6198C44.8663 25.0233 45.0959 24.9105 45.2627 24.7279C45.4302 24.5458 45.5231 24.3075 45.5231 24.0601C45.5231 23.8127 45.4302 23.5743 45.2627 23.3922C45.0959 23.2097 44.8663 23.0969 44.6198 23.0764H38.8173C38.6805 23.0651 38.5428 23.0821 38.4128 23.1262C38.2832 23.1693 38.1643 23.2391 38.0636 23.3313C37.9625 23.4249 37.8814 23.538 37.8253 23.6638C37.7705 23.7887 37.7422 23.9237 37.7422 24.0601C37.7422 24.1965 37.7705 24.3314 37.8253 24.4563C37.8814 24.5821 37.9625 24.6953 38.0636 24.7889C38.1629 24.8829 38.2823 24.953 38.4128 24.9939C38.5428 25.0381 38.6805 25.055 38.8173 25.0438H38.7785Z" fill="#EC0000" stroke="#EC0000" stroke-miterlimit="10"/>
</g>
<defs>
<clipPath id="clip0_1964_7428">
<rect width="40.0913" height="58.43" fill="white" transform="translate(27 18)"/>
</clipPath>
</defs>
</svg>
