<svg width="63" height="77" viewBox="0 0 63 77" fill="none" xmlns="http://www.w3.org/2000/svg">
<g clip-path="url(#clip0_1936_7129)">
<path d="M18.9569 47.7368C21.591 47.7368 23.7264 45.6014 23.7264 42.9673C23.7264 40.3332 21.591 38.1979 18.9569 38.1979C16.3229 38.1979 14.1875 40.3332 14.1875 42.9673C14.1875 45.6014 16.3229 47.7368 18.9569 47.7368Z" stroke="#EC0000" stroke-width="3" stroke-linecap="round" stroke-linejoin="round"/>
<path d="M31.4335 34.7955C34.0676 34.7955 36.2029 32.6601 36.2029 30.026C36.2029 27.3919 34.0676 25.2566 31.4335 25.2566C28.7994 25.2566 26.6641 27.3919 26.6641 30.026C26.6641 32.6601 28.7994 34.7955 31.4335 34.7955Z" stroke="#EC0000" stroke-width="3" stroke-linecap="round" stroke-linejoin="round"/>
<path d="M43.4023 47.7368C46.0363 47.7368 48.1717 45.6014 48.1717 42.9673C48.1717 40.3332 46.0363 38.1979 43.4023 38.1979C40.7682 38.1979 38.6328 40.3332 38.6328 42.9673C38.6328 45.6014 40.7682 47.7368 43.4023 47.7368Z" stroke="#EC0000" stroke-width="3" stroke-linecap="round" stroke-linejoin="round"/>
<path d="M18.9609 38.2087V16.9264" stroke="#EC0000" stroke-width="3" stroke-linecap="round" stroke-linejoin="round"/>
<path d="M31.4375 25.2676V16.9264" stroke="#EC0000" stroke-width="3" stroke-linecap="round" stroke-linejoin="round"/>
<path d="M43.3984 38.2087V16.9264" stroke="#EC0000" stroke-width="3" stroke-linecap="round" stroke-linejoin="round"/>
<path d="M18.9609 56.0777V47.7365" stroke="#EC0000" stroke-width="3" stroke-linecap="round" stroke-linejoin="round"/>
<path d="M43.3984 56.0777V47.7365" stroke="#EC0000" stroke-width="3" stroke-linecap="round" stroke-linejoin="round"/>
<path d="M31.4375 57.0108V35.7285" stroke="#EC0000" stroke-width="3" stroke-linecap="round" stroke-linejoin="round"/>
<path d="M31.2637 75.2509H31.338L31.6663 75.092C35.0396 73.4073 38.3259 71.5537 41.5126 69.5382C44.0106 67.9553 46.4169 66.232 48.7198 64.3766C50.686 62.7954 52.5415 61.0815 54.2736 59.2468C55.5562 57.8917 56.7361 56.4427 57.803 54.9119C58.6128 53.7633 59.322 52.547 59.9228 51.2765C60.2335 50.6304 60.4922 49.9606 60.6965 49.2734C60.7684 49.0545 60.8041 48.8254 60.8023 48.5951V11.8279C60.8076 11.7539 60.8076 11.6795 60.8023 11.6054C60.807 11.5702 60.807 11.5346 60.8023 11.4994L60.6116 11.4358L58.9794 10.8953L46.0595 6.65575L34.4009 2.7766L31.4968 1.82272C31.4013 1.78598 31.2956 1.78598 31.2 1.82272L30.437 2.07708L16.7859 6.59216L5.6678 10.2699L2.03224 11.4782C1.95873 11.4988 1.88771 11.5272 1.82031 11.563V48.6586C1.82066 48.8162 1.8421 48.9731 1.88397 49.125C2.09404 49.8524 2.36346 50.5614 2.68948 51.2447C3.31479 52.5566 4.05221 53.812 4.89385 54.9967C6.00049 56.5659 7.22295 58.0504 8.55063 59.4376C10.3012 61.266 12.1745 62.9728 14.1574 64.5462C16.5885 66.4823 19.1293 68.2765 21.7673 69.9198C24.8197 71.8275 27.9568 73.5657 31.1682 75.2191L31.2637 75.2509Z" stroke="#EC0000" stroke-width="3" stroke-linecap="round" stroke-linejoin="round"/>
</g>
<defs>
<clipPath id="clip0_1936_7129">
<rect width="62.5539" height="77" fill="white"/>
</clipPath>
</defs>
</svg>
