<svg width="14" height="13" viewBox="0 0 14 13" fill="none" xmlns="http://www.w3.org/2000/svg">
<path d="M10.9946 0.996275L10.9946 0.99625L10.991 1.00199L5.78919 9.31389L2.34848 5.73879L2.34855 5.73872L2.34159 5.73177L2.27152 5.66178L2.25553 5.6458L2.23815 5.63132C2.04347 5.46917 1.7982 5.38043 1.54488 5.38043C1.29169 5.38043 1.04625 5.46909 0.851468 5.63132L0.835958 5.64424L0.82154 5.65837C0.71948 5.75837 0.638729 5.87758 0.583618 6.00874C0.52828 6.14043 0.5 6.28159 0.5 6.42389C0.5 6.56619 0.52828 6.70735 0.583618 6.83904C0.637691 6.96772 0.716375 7.08468 0.815431 7.1833L5.20944 11.7522L5.22866 11.7721L5.24996 11.7899L5.32003 11.8482L5.32845 11.8552L5.33718 11.8618C5.5257 12.0053 5.75635 12.0821 5.99321 12.0805L6.01951 12.0803L6.04564 12.0774C6.20621 12.0594 6.3613 12.0067 6.49993 11.9228C6.63857 11.8389 6.75702 11.726 6.84747 11.5921L6.84761 11.5922L6.85463 11.5812L12.863 2.16619L12.9415 2.04316V1.89722V1.88398C12.9991 1.68039 12.9966 1.46369 12.9333 1.26032C12.8591 1.02234 12.7061 0.816581 12.4989 0.677285L12.499 0.677184L12.4897 0.671245C12.2482 0.516482 11.9551 0.46381 11.6749 0.524727C11.3946 0.585674 11.15 0.755345 10.9946 0.996275Z" fill="#EC0000" stroke="#EC0000"/>
</svg>
