<svg width="63" height="77" viewBox="0 0 63 77" fill="none" xmlns="http://www.w3.org/2000/svg">
<g clip-path="url(#clip0_1936_7140)">
<path d="M31.2637 75.2509H31.338L31.6663 75.092C35.0396 73.4073 38.3259 71.5537 41.5126 69.5382C44.0106 67.9553 46.4169 66.232 48.7198 64.3766C50.686 62.7954 52.5415 61.0815 54.2736 59.2468C55.5562 57.8917 56.7361 56.4427 57.803 54.9119C58.6128 53.7633 59.322 52.547 59.9228 51.2765C60.2335 50.6304 60.4922 49.9606 60.6965 49.2734C60.7684 49.0545 60.8041 48.8254 60.8023 48.5951V11.8279C60.8076 11.7539 60.8076 11.6795 60.8023 11.6054C60.807 11.5702 60.807 11.5346 60.8023 11.4994L60.6116 11.4358L58.9794 10.8953L46.0595 6.65575L34.4009 2.7766L31.4968 1.82272C31.4013 1.78598 31.2956 1.78598 31.2 1.82272L30.437 2.07708L16.7859 6.59216L5.6678 10.2699L2.03224 11.4782C1.95873 11.4988 1.88771 11.5272 1.82031 11.563V48.6586C1.82066 48.8162 1.8421 48.9731 1.88397 49.125C2.09404 49.8524 2.36346 50.5614 2.68948 51.2447C3.31479 52.5566 4.05221 53.812 4.89385 54.9967C6.00049 56.5659 7.22295 58.0504 8.55063 59.4376C10.3012 61.266 12.1745 62.9728 14.1574 64.5462C16.5885 66.4823 19.1293 68.2765 21.7673 69.9198C24.8197 71.8275 27.9568 73.5657 31.1682 75.2191L31.2637 75.2509Z" stroke="#EC0000" stroke-width="3" stroke-linecap="round" stroke-linejoin="round"/>
<path d="M19.6128 27.7621C21.6029 27.7621 23.3476 28.1028 24.847 28.7844C26.3464 29.4659 27.5186 30.4882 28.3637 31.8513C29.2088 33.2144 29.6314 34.8909 29.6314 36.881C29.6314 40.0434 28.6227 42.4696 26.6054 44.1598C24.6153 45.8501 21.6574 46.6952 17.7317 46.6952C15.878 46.6952 14.0105 46.4771 12.1295 46.0409C12.1295 44.5688 12.3476 43.0421 12.7838 41.461C13.3017 41.6245 13.9697 41.7608 14.7875 41.8699C15.6053 41.9789 16.4504 42.0335 17.3228 42.0335C19.6128 42.0335 21.3166 41.6245 22.4344 40.8067C23.5521 39.9888 24.1109 38.7075 24.1109 36.9628C24.1109 35.3271 23.5793 34.1276 22.5161 33.3643C21.4529 32.5737 19.8581 32.1784 17.7317 32.1784C16.096 32.1784 14.5421 32.3692 13.07 32.7509L14.1741 17.7026H29.018C28.9907 18.3568 28.9362 19.1202 28.8544 19.9925C28.7726 20.8376 28.6772 21.6146 28.5682 22.3234H19.0403L18.6314 27.8029C18.8222 27.7757 19.1493 27.7621 19.6128 27.7621ZM41.7684 46.6952C38.4425 46.6952 35.9753 45.4957 34.3669 43.0966C32.7857 40.6976 31.9952 36.9492 31.9952 31.8513C31.9952 28.3891 32.3496 25.5675 33.0583 23.3866C33.7671 21.1784 34.844 19.5563 36.2888 18.5204C37.7337 17.4845 39.5602 16.9665 41.7684 16.9665C44.0038 16.9665 45.8304 17.4845 47.248 18.5204C48.6928 19.5563 49.7697 21.1784 50.4785 23.3866C51.1873 25.5675 51.5417 28.3891 51.5417 31.8513C51.5417 36.9492 50.7374 40.6976 49.129 43.0966C47.5478 45.4957 45.0943 46.6952 41.7684 46.6952ZM41.7684 42.0335C42.8861 42.0335 43.7449 41.7199 44.3446 41.0929C44.9716 40.4659 45.4078 39.43 45.6532 37.9851C45.9258 36.513 46.0621 34.482 46.0621 31.8922C46.0621 29.3023 45.9258 27.2713 45.6532 25.7992C45.4078 24.3271 44.9716 23.2639 44.3446 22.6096C43.7176 21.9554 42.8589 21.6282 41.7684 21.6282C40.6779 21.6282 39.8192 21.9554 39.1922 22.6096C38.5924 23.2639 38.1563 24.3271 37.8836 25.7992C37.611 27.2713 37.4747 29.3023 37.4747 31.8922C37.4747 34.482 37.5974 36.513 37.8427 37.9851C38.1154 39.43 38.5515 40.4659 39.1513 41.0929C39.7783 41.7199 40.6507 42.0335 41.7684 42.0335Z" fill="#EC0000"/>
<path d="M25.0329 50.9703C25.4787 50.9703 25.8327 51.0228 26.0949 51.1277C26.0949 51.4948 26.0752 51.875 26.0359 52.2683C25.9965 52.6485 25.9441 52.9763 25.8785 53.2516C25.4852 53.1992 25.1181 53.1729 24.7773 53.1729C24.4495 53.1729 24.1086 53.2254 23.7546 53.3303C23.4006 53.422 23.0925 53.5728 22.8303 53.7826V61H20.3131V51.1867H22.6533L22.791 52.583C23.027 52.0848 23.3416 51.6914 23.735 51.403C24.1283 51.1146 24.5609 50.9703 25.0329 50.9703ZM30.8866 50.9507C32.2763 50.9507 33.2924 51.2326 33.9348 51.7963C34.5773 52.347 34.8985 53.1992 34.8985 54.3529V61H32.6172L32.4796 59.584C31.9682 60.6853 31.0505 61.236 29.7263 61.236C29.1232 61.236 28.5791 61.118 28.094 60.882C27.6221 60.646 27.2484 60.3051 26.9731 59.8594C26.6978 59.4005 26.5601 58.8499 26.5601 58.2074C26.5601 57.4601 26.724 56.8505 27.0517 56.3785C27.3795 55.8934 27.9367 55.5132 28.7234 55.2379C29.51 54.9494 30.5851 54.7528 31.9486 54.6479L32.4206 54.6086V54.4906C32.4206 53.9399 32.2895 53.54 32.0272 53.2909C31.765 53.0418 31.3127 52.9173 30.6703 52.9173C29.9623 52.9173 29.3396 52.9763 28.802 53.0943C28.2645 53.1992 27.7269 53.363 27.1894 53.5859C27.1894 53.2844 27.2025 52.9566 27.2287 52.6026C27.255 52.2355 27.2943 51.9143 27.3467 51.639C27.8318 51.4292 28.3759 51.2653 28.979 51.1473C29.5952 51.0162 30.2311 50.9507 30.8866 50.9507ZM30.4146 59.3481C30.8342 59.3481 31.2209 59.2628 31.5749 59.0924C31.9289 58.9089 32.2108 58.6663 32.4206 58.3648V56.2212L32.0862 56.2408C31.2209 56.3064 30.5588 56.4178 30.1 56.5752C29.6542 56.7194 29.3527 56.9095 29.1953 57.1455C29.0511 57.3683 28.979 57.6633 28.979 58.0304C28.979 58.4369 29.1036 58.7581 29.3527 58.9941C29.6149 59.2301 29.9689 59.3481 30.4146 59.3481ZM39.6709 57.6175C39.6709 58.155 39.7757 58.5483 39.9855 58.7974C40.1953 59.0465 40.523 59.1711 40.9688 59.1711C41.1917 59.1711 41.4211 59.1448 41.6571 59.0924C41.9062 59.0268 42.1291 58.9482 42.3258 58.8564C42.2864 59.5513 42.1947 60.2265 42.0504 60.882C41.5391 61.118 40.9557 61.236 40.3002 61.236C39.2775 61.236 38.4975 60.9607 37.9599 60.41C37.4224 59.8594 37.1536 59.0203 37.1536 57.8928V48.4728C37.9402 48.2499 38.7793 48.1384 39.6709 48.1384V51.1867H42.4438C42.3782 51.9733 42.2995 52.6354 42.2078 53.1729H39.6709V57.6175Z" fill="#EC0000"/>
</g>
<defs>
<clipPath id="clip0_1936_7140">
<rect width="62.5539" height="77" fill="white"/>
</clipPath>
</defs>
</svg>
