<!DOCTYPE svg PUBLIC "-//W3C//DTD SVG 1.1//EN" "http://www.w3.org/Graphics/SVG/1.1/DTD/svg11.dtd">

<!-- Uploaded to: SVG Repo, www.svgrepo.com, Transformed by: SVG Repo Mixer Tools -->
<svg width="25px" height="25px" viewBox="0 0 48 48" fill="none" xmlns="http://www.w3.org/2000/svg" stroke="">

<g id="SVGRepo_bgCarrier" stroke-width="0"/>

<g id="SVGRepo_tracerCarrier" stroke-linecap="round" stroke-linejoin="round"/>

<g id="SVGRepo_iconCarrier"> <rect width="48" height="48" fill="white" fill-opacity="0.01"/> <path d="M6 8H10" stroke="#5e5e5e" stroke-width="4" stroke-linecap="round" stroke-linejoin="round"/> <path d="M14 16H18" stroke="#5e5e5e" stroke-width="4" stroke-linecap="round" stroke-linejoin="round"/> <path d="M16 6V10" stroke="#5e5e5e" stroke-width="4" stroke-linecap="round" stroke-linejoin="round"/> <path d="M8 14V18" stroke="#5e5e5e" stroke-width="4" stroke-linecap="round" stroke-linejoin="round"/> <path d="M22 8H26" stroke="#5e5e5e" stroke-width="4" stroke-linecap="round" stroke-linejoin="round"/> <path d="M30 16H34" stroke="#5e5e5e" stroke-width="4" stroke-linecap="round" stroke-linejoin="round"/> <path d="M32 6V10" stroke="#5e5e5e" stroke-width="4" stroke-linecap="round" stroke-linejoin="round"/> <path d="M24 14V18" stroke="#5e5e5e" stroke-width="4" stroke-linecap="round" stroke-linejoin="round"/> <path d="M38 8H42" stroke="#5e5e5e" stroke-width="4" stroke-linecap="round" stroke-linejoin="round"/> <path d="M40 14V18" stroke="#5e5e5e" stroke-width="4" stroke-linecap="round" stroke-linejoin="round"/> <path d="M6 24H10" stroke="#5e5e5e" stroke-width="4" stroke-linecap="round" stroke-linejoin="round"/> <path d="M14 32H18" stroke="#5e5e5e" stroke-width="4" stroke-linecap="round" stroke-linejoin="round"/> <path d="M16 22V26" stroke="#5e5e5e" stroke-width="4" stroke-linecap="round" stroke-linejoin="round"/> <path d="M8 30V34" stroke="#5e5e5e" stroke-width="4" stroke-linecap="round" stroke-linejoin="round"/> <path d="M22 24H26" stroke="#5e5e5e" stroke-width="4" stroke-linecap="round" stroke-linejoin="round"/> <path d="M30 32H34" stroke="#5e5e5e" stroke-width="4" stroke-linecap="round" stroke-linejoin="round"/> <path d="M32 22V26" stroke="#5e5e5e" stroke-width="4" stroke-linecap="round" stroke-linejoin="round"/> <path d="M24 30V34" stroke="#5e5e5e" stroke-width="4" stroke-linecap="round" stroke-linejoin="round"/> <path d="M38 24H42" stroke="#5e5e5e" stroke-width="4" stroke-linecap="round" stroke-linejoin="round"/> <path d="M40 30V34" stroke="#5e5e5e" stroke-width="4" stroke-linecap="round" stroke-linejoin="round"/> <path d="M6 40H10" stroke="#5e5e5e" stroke-width="4" stroke-linecap="round" stroke-linejoin="round"/> <path d="M16 38V42" stroke="#5e5e5e" stroke-width="4" stroke-linecap="round" stroke-linejoin="round"/> <path d="M22 40H26" stroke="#5e5e5e" stroke-width="4" stroke-linecap="round" stroke-linejoin="round"/> <path d="M32 38V42" stroke="#5e5e5e" stroke-width="4" stroke-linecap="round" stroke-linejoin="round"/> <path d="M38 40H42" stroke="#5e5e5e" stroke-width="4" stroke-linecap="round" stroke-linejoin="round"/> </g>

</svg>